<?xml version="1.0" standalone="no"?>
<!DOCTYPE svg PUBLIC "-//W3C//DTD SVG 20010904//EN"
 "http://www.w3.org/TR/2001/REC-SVG-20010904/DTD/svg10.dtd">
<svg version="1.0" xmlns="http://www.w3.org/2000/svg"
 width="1024.000000pt" height="1024.000000pt" viewBox="0 0 1024.000000 1024.000000"
 preserveAspectRatio="xMidYMid meet">

<g transform="translate(0.000000,1024.000000) scale(0.100000,-0.100000)"
fill="#000000" stroke="none">
<path d="M0 5120 l0 -5120 1464 0 1465 0 3 22 c2 14 24 37 57 60 55 39 55 51
0 22 -58 -29 -59 -25 -59 196 0 165 3 202 14 206 15 6 77 -21 135 -58 19 -12
31 -17 28 -11 -4 7 -2 15 4 19 8 4 9 3 5 -4 -14 -23 69 -57 254 -106 198 -52
325 -56 441 -13 93 34 163 89 154 121 -4 14 -3 17 3 8 7 -10 12 -9 24 5 26 30
49 83 42 95 -4 6 -3 8 3 5 26 -16 43 138 22 199 -7 21 -12 42 -11 47 4 13 -48
87 -61 86 -9 0 -9 -2 1 -6 6 -2 12 -9 12 -14 0 -6 -4 -7 -10 -4 -6 3 -7 -1 -3
-10 5 -13 7 -14 14 -3 5 7 9 9 9 3 0 -5 -4 -16 -9 -23 -7 -11 -9 -11 -14 2 -4
9 -13 13 -22 10 -8 -3 -15 -1 -15 5 0 6 5 11 12 11 19 0 1 12 -24 16 -13 2
-36 6 -53 9 l-30 5 31 -10 c17 -5 39 -19 49 -30 10 -11 24 -20 32 -20 8 0 12
-4 9 -9 -3 -5 1 -12 10 -15 8 -3 12 -11 8 -17 -4 -8 -3 -9 4 -5 6 4 8 14 5 23
-4 11 -3 14 5 9 8 -5 10 -1 5 11 -4 14 -3 15 6 7 10 -9 9 -18 -4 -44 -9 -17
-14 -34 -11 -38 3 -3 6 0 6 7 0 7 5 9 10 6 6 -4 7 -13 1 -23 -4 -9 -7 -43 -6
-75 1 -31 -1 -57 -5 -57 -14 0 -21 -33 -9 -44 9 -8 10 -8 6 0 -4 7 0 14 8 18
22 8 18 -9 -10 -42 -15 -18 -23 -37 -19 -46 4 -10 -3 -19 -20 -27 -19 -9 -25
-17 -20 -31 3 -10 1 -18 -5 -18 -6 0 -11 7 -11 16 0 8 -5 12 -11 8 -8 -4 -9 1
-4 17 l7 24 -23 -21 c-38 -33 -145 -75 -206 -81 l-56 -6 7 29 c4 16 14 36 21
44 15 16 48 130 40 138 -2 2 -53 -3 -112 -12 -157 -24 -284 -23 -354 3 -30 12
-65 30 -77 41 -29 28 -62 93 -62 125 0 34 32 148 43 156 5 4 6 12 2 19 -6 9
-4 11 5 5 9 -6 10 -1 5 16 -5 18 -4 20 4 9 9 -12 11 -12 16 2 4 10 3 22 -1 29
-5 8 -3 9 5 4 14 -8 63 33 55 46 -3 5 1 9 9 9 17 0 60 40 52 48 -4 4 -12 -1
-19 -11 -14 -18 -76 -31 -76 -16 0 5 9 9 21 9 12 0 23 8 26 20 3 11 12 20 19
20 8 0 14 3 14 8 0 13 93 50 200 79 89 23 124 27 235 27 76 0 111 3 85 7 l-45
6 43 1 c65 3 85 -23 77 -96 -4 -31 -10 -72 -15 -89 -8 -31 -7 -33 27 -42 83
-23 158 -104 189 -206 9 -27 17 -88 19 -135 l4 -85 50 3 c28 2 79 11 113 20
l63 17 11 87 c8 58 19 97 33 116 38 54 117 82 274 98 54 5 67 10 67 23 0 17
-7 16 -106 -1 -139 -24 -191 -47 -234 -103 -33 -42 -50 -55 -50 -37 0 4 17 30
38 57 49 65 114 99 227 120 111 21 116 24 129 63 6 17 19 40 28 51 9 11 13 23
10 27 -4 4 -1 4 6 0 9 -5 10 -12 3 -20 -15 -18 -33 -68 -21 -61 6 3 10 11 10
16 0 13 64 104 122 171 67 79 196 182 232 184 11 1 34 17 51 36 26 29 166 108
193 108 10 0 26 29 24 42 -1 5 87 51 173 88 67 30 213 42 266 22 42 -16 50
-37 60 -144 6 -57 14 -120 18 -141 9 -39 2 -47 -20 -21 -20 25 -65 44 -102 44
-55 0 -180 -36 -254 -73 -161 -82 -355 -243 -403 -337 -35 -66 -39 -195 -11
-271 12 -31 31 -65 44 -76 34 -32 125 -76 138 -67 7 4 9 3 5 -4 -7 -12 48 -27
64 -17 5 3 10 1 10 -5 0 -8 31 -11 108 -8 99 3 113 6 186 41 162 76 220 155
219 298 -1 141 -63 248 -155 266 -128 26 -329 -63 -394 -173 -41 -70 -26 -181
30 -218 28 -18 81 -22 71 -5 -4 6 1 6 12 -2 28 -17 78 -5 142 34 64 38 90 70
94 117 5 46 -8 70 -38 70 -24 0 -34 -9 -131 -117 -52 -59 -79 -72 -101 -50
-25 25 -8 60 64 127 77 72 130 99 194 100 64 0 89 -28 89 -100 0 -90 -67 -174
-183 -229 -63 -31 -210 -44 -225 -21 -9 12 -13 12 -20 3 -6 -10 -12 -10 -28 2
-19 15 -19 15 1 9 14 -4 12 0 -7 12 -15 10 -32 28 -39 41 -7 12 -15 20 -19 18
-13 -8 -17 17 -16 105 2 104 20 145 99 216 99 91 232 147 347 147 78 0 124
-18 182 -72 56 -51 85 -110 98 -198 17 -126 -14 -228 -103 -330 -33 -37 -135
-113 -152 -113 -3 0 -28 -11 -55 -24 -43 -21 -162 -44 -195 -38 -5 1 -37 6
-70 11 -85 13 -90 15 -192 62 -111 52 -193 168 -193 274 0 49 28 144 61 204
71 132 279 307 473 397 89 41 207 74 263 74 29 0 41 4 39 13 -3 6 -7 24 -10
39 -4 15 -16 37 -29 49 -18 17 -30 20 -70 14 -67 -8 -170 -41 -255 -82 -41
-19 -83 -33 -93 -30 -10 3 -17 1 -13 -4 6 -10 -45 -58 -62 -59 -6 0 -17 -6
-23 -14 -7 -8 -43 -35 -81 -61 -39 -26 -67 -51 -64 -56 3 -5 0 -8 -8 -7 -7 2
-12 -2 -11 -9 2 -7 -3 -10 -10 -7 -7 2 -60 -42 -118 -98 -133 -131 -166 -189
-182 -324 -12 -100 -20 -111 -56 -75 -18 18 -28 19 -125 12 -123 -10 -171 -30
-198 -81 -23 -45 -25 -161 -3 -180 8 -7 15 -18 15 -25 0 -18 50 -57 68 -53 14
3 28 36 73 170 17 50 28 68 41 68 43 0 41 -78 -3 -134 -11 -14 -17 -31 -13
-38 4 -7 4 -10 -1 -6 -10 9 -51 -43 -71 -90 -26 -60 -97 -31 -130 53 -9 25
-18 45 -20 45 -2 0 -12 -8 -22 -18 -11 -11 -55 -25 -113 -37 -124 -24 -142
-31 -162 -63 -9 -15 -47 -59 -84 -97 -50 -52 -83 -76 -123 -92 -36 -14 -47
-22 -32 -22 13 -1 32 4 43 9 34 19 319 78 449 95 69 9 147 23 173 31 43 14
107 66 107 88 0 20 106 166 121 166 35 0 257 -99 278 -124 7 -9 20 -16 29 -16
8 0 13 -2 10 -5 -3 -3 -65 2 -137 11 -73 9 -142 13 -154 10 -12 -3 -41 -30
-64 -60 -23 -31 -59 -66 -80 -79 -46 -29 -137 -61 -218 -77 -63 -13 -149 -33
-410 -99 -370 -94 -487 -108 -730 -87 -93 8 -173 12 -177 10 -4 -3 -8 -15 -8
-28 0 -12 -5 -27 -12 -34 -12 -12 -12 -12 34 -16 7 -1 15 10 19 24 7 25 7 25
8 2 1 -13 -4 -32 -9 -43 -12 -22 -7 -24 20 -7 15 10 24 9 45 -2 22 -12 28 -12
35 0 7 11 11 11 24 1 11 -9 20 -10 35 -2 13 7 22 8 26 1 4 -6 94 -10 239 -10
227 0 235 1 352 31 237 61 350 87 424 99 218 35 305 73 393 173 29 32 72 71
97 87 87 55 130 62 445 71 196 5 308 12 345 22 112 30 191 69 283 143 76 60
102 75 147 84 30 6 159 34 285 61 618 134 997 206 1500 283 94 15 239 38 324
52 84 13 162 22 173 18 15 -4 18 -3 13 7 -6 9 -3 10 11 4 10 -4 42 -6 69 -4
91 7 155 3 168 -11 10 -10 8 -12 -8 -6 -13 5 -24 1 -35 -12 -15 -19 -205 -55
-655 -122 -250 -38 -387 -60 -520 -86 -365 -71 -886 -177 -935 -189 -30 -8
-113 -26 -185 -40 -233 -47 -277 -61 -358 -115 -166 -111 -253 -135 -557 -155
-391 -26 -465 -46 -590 -161 -111 -101 -124 -107 -475 -200 -49 -13 -94 -26
-100 -28 -5 -3 119 -5 278 -5 230 -1 287 2 287 12 0 17 54 68 110 103 104 64
210 90 490 119 299 31 410 58 565 136 88 45 132 79 114 89 -7 5 -5 9 6 13 9 4
13 3 10 -3 -4 -6 8 -10 27 -10 33 0 284 47 513 95 163 34 180 33 194 -6 17
-49 13 -155 -9 -247 -25 -105 -26 -125 -2 -118 9 3 50 12 91 21 41 9 76 17 77
18 1 1 23 74 49 162 68 232 81 262 117 274 17 6 42 11 54 11 20 0 24 -5 24
-28 0 -32 -85 -348 -101 -376 -10 -17 -8 -18 23 -12 18 3 121 20 228 36 107
17 197 34 201 38 3 4 21 43 39 87 33 78 94 186 131 234 11 13 18 26 16 28 -8
8 -203 -29 -214 -40 -7 -7 -32 -66 -57 -132 l-44 -120 -41 -3 c-41 -3 -42 -3
-35 25 4 15 25 80 46 143 43 130 45 140 21 141 -14 0 -13 2 5 9 12 5 22 13 22
18 0 13 47 30 100 37 61 7 364 50 530 75 74 11 194 31 265 44 72 13 148 24
170 24 22 -1 59 3 81 7 40 7 42 6 53 -25 6 -18 11 -62 11 -96 0 -50 -3 -64
-15 -64 -9 0 -15 10 -15 26 0 16 4 23 11 18 7 -4 10 -1 7 7 -3 8 -10 13 -16
12 -5 -1 -13 8 -16 21 -7 29 7 30 -246 -19 -227 -43 -278 -52 -380 -65 -46 -6
-92 -16 -102 -21 -40 -22 -105 -195 -95 -255 3 -19 16 -48 28 -65 22 -31 23
-32 93 -26 39 3 172 24 295 47 124 23 234 39 246 36 19 -5 155 13 228 30 25 6
27 4 27 -24 0 -27 -4 -31 -44 -41 -25 -6 -57 -11 -71 -11 -15 0 -41 -6 -58
-14 -18 -8 -48 -19 -67 -25 -68 -20 -511 -91 -572 -91 -56 0 -63 3 -92 33 -30
32 -58 80 -71 121 -4 15 -18 -2 -58 -74 -30 -52 -64 -102 -78 -111 -14 -11
-84 -28 -174 -44 -287 -51 -471 -87 -578 -112 -102 -24 -108 -25 -121 -8 -15
21 -36 12 -80 -34 l-30 -31 1852 0 1852 0 0 1864 0 1864 -41 41 c-34 34 -48
41 -80 41 -36 0 -39 2 -40 28 0 15 -3 21 -6 15 -8 -22 -33 -14 -33 10 0 13
-10 33 -22 44 -26 24 -98 42 -98 24 0 -6 -7 -11 -15 -11 -8 0 -15 7 -15 15 0
8 -4 15 -10 15 -5 0 -10 -7 -10 -15 0 -8 -7 -15 -15 -15 -8 0 -15 4 -15 9 0 5
-39 12 -87 16 -98 8 -126 23 -117 61 5 20 2 24 -15 24 -12 0 -21 -6 -21 -15 0
-8 -4 -15 -9 -15 -5 0 -11 -8 -14 -17 -4 -17 -5 -17 -12 1 -5 11 -4 26 3 36 8
13 7 21 -1 29 -22 22 -55 8 -70 -31 -10 -27 -24 -21 -31 13 -10 50 -7 258 5
329 32 201 118 462 164 500 11 9 17 7 26 -8 7 -11 20 -17 33 -15 13 2 41 -10
71 -31 28 -19 67 -43 88 -53 43 -20 46 -30 15 -36 -13 -2 -7 -3 12 -1 28 3 55
-7 125 -47 126 -71 216 -119 226 -119 5 0 8 314 7 707 l-3 707 -34 9 c-19 4
-37 5 -40 0 -3 -5 -25 -16 -48 -25 -35 -13 -44 -14 -53 -3 -17 20 -8 50 15 51
55 3 55 3 55 44 0 29 4 40 15 40 11 0 15 -11 15 -40 0 -29 4 -40 15 -40 11 0
15 11 15 40 0 36 3 40 25 40 25 0 25 1 25 80 l0 80 -40 0 c-22 0 -40 5 -40 10
0 6 19 10 42 10 37 0 40 1 24 13 -17 12 -17 14 -2 20 13 5 16 22 16 88 l0 81
-42 -5 c-72 -9 -113 -19 -119 -29 -4 -6 -15 -5 -27 3 -17 11 -24 11 -34 1 -6
-6 -22 -12 -34 -12 -13 0 -26 -4 -29 -10 -3 -5 -27 -10 -53 -10 -34 0 -43 -3
-32 -10 9 -6 10 -10 3 -10 -6 0 -18 7 -27 15 -20 20 -26 19 -26 -5 0 -14 -7
-20 -22 -21 -13 0 -45 -1 -73 -2 -27 -2 -65 1 -84 6 -22 6 -36 5 -40 -2 -9
-14 -99 -33 -122 -26 -37 12 -13 35 36 35 13 0 27 5 30 10 3 6 -1 10 -9 10 -9
0 -16 5 -16 11 0 7 -14 8 -40 4 -34 -6 -40 -4 -40 10 0 14 8 16 40 13 26 -2
40 1 40 8 0 17 -55 34 -107 34 -31 0 -51 6 -66 21 -21 19 -21 21 -5 33 24 18
22 26 -6 26 -13 0 -38 -13 -56 -30 -35 -33 -55 -38 -64 -15 -4 10 -20 15 -51
15 -33 0 -45 -4 -45 -15 0 -11 12 -15 44 -15 25 0 48 -4 51 -10 4 -6 -8 -10
-29 -10 -35 0 -36 -1 -36 -40 0 -38 2 -40 30 -40 22 0 28 -4 24 -15 -4 -10
-20 -15 -45 -15 l-39 0 0 55 0 55 -40 0 c-30 0 -40 -4 -40 -16 0 -17 -22 -14
-28 4 -2 7 4 12 13 12 14 0 16 9 15 48 -4 80 -2 82 64 56 10 -4 16 -1 16 8 0
16 64 40 85 32 7 -3 28 4 46 15 19 12 48 21 64 21 47 0 103 19 114 38 10 16
10 16 11 0 0 -25 17 -22 31 5 17 32 28 37 87 37 50 0 138 31 154 54 4 6 19 11
35 12 15 1 28 3 28 4 0 2 11 4 25 6 58 7 166 40 177 54 9 12 32 14 114 13 98
-3 103 -2 125 23 24 25 33 74 14 74 -29 0 -60 -25 -60 -49 0 -20 -2 -23 -10
-11 -6 9 -24 14 -52 14 -41 -1 -195 -33 -229 -48 -9 -4 -27 -8 -40 -10 -13 -2
-32 -7 -41 -11 -9 -4 -21 -4 -27 -1 -5 3 -11 2 -13 -4 -1 -5 -27 -12 -56 -15
-29 -2 -61 -9 -72 -15 -10 -5 -27 -10 -38 -10 -10 0 -34 -8 -53 -17 -18 -9
-58 -19 -89 -21 -30 -2 -61 -9 -68 -15 -10 -8 -16 -7 -21 2 -7 10 -18 8 -52
-8 -23 -12 -57 -21 -75 -21 -18 0 -34 -5 -36 -12 -3 -7 -27 -11 -66 -11 -34 1
-65 -3 -68 -8 -3 -5 -27 -9 -55 -9 -37 0 -49 -4 -49 -15 0 -11 -11 -15 -40
-15 -29 0 -40 -4 -40 -15 0 -11 -11 -15 -40 -15 -40 0 -40 0 -40 38 0 21 -5
43 -11 49 -23 23 -2 43 46 43 36 0 45 3 45 18 0 9 7 25 14 35 14 18 15 18 24
1 9 -16 12 -16 27 -4 10 9 14 22 10 37 -7 31 13 30 25 -2 11 -28 14 -29 41
-15 15 8 19 7 19 -5 0 -11 11 -15 40 -15 22 0 40 5 40 10 0 6 9 10 20 10 10 0
24 9 30 20 9 17 8 20 -11 20 -17 0 -19 3 -10 14 12 14 51 10 51 -5 0 -5 5 -9
12 -9 9 0 9 3 0 12 -21 21 -13 28 28 28 28 0 40 4 40 14 0 26 -81 33 -111 10
-8 -5 -57 -11 -109 -13 -93 -3 -96 -4 -125 -36 -26 -29 -32 -32 -44 -18 -8 9
-22 12 -35 9 -11 -3 -29 -6 -38 -6 -14 0 -18 -9 -18 -40 l0 -40 -40 0 c-37 0
-40 2 -40 29 0 21 -6 31 -22 36 -22 7 -21 8 7 12 16 3 42 14 57 25 15 10 32
17 37 14 5 -4 17 1 26 10 11 11 25 14 45 10 20 -3 32 -1 37 9 5 8 33 21 63 29
30 8 66 18 80 22 14 4 30 11 36 15 6 5 32 12 58 15 25 4 46 11 46 15 0 5 11 9
24 9 14 0 28 5 31 10 3 6 17 10 30 10 13 0 34 4 47 9 13 5 64 22 113 37 50 15
129 40 177 55 48 16 96 29 106 29 10 0 22 3 26 7 3 4 14 8 24 9 9 2 64 17 122
34 58 18 148 43 200 56 157 41 150 35 150 115 0 44 -4 69 -11 69 -6 0 -8 7 -5
16 5 13 0 15 -36 9 -24 -4 -47 -11 -53 -15 -5 -4 -26 -10 -45 -13 -36 -6 -144
-34 -235 -61 -27 -8 -95 -27 -150 -42 -55 -15 -102 -30 -105 -33 -3 -3 -12 -7
-20 -8 -22 -3 -84 -19 -175 -43 -43 -12 -89 -20 -102 -17 -14 2 -23 -1 -23 -8
0 -7 -12 -11 -30 -10 -17 1 -31 -4 -34 -12 -3 -8 -10 -12 -16 -8 -5 3 -18 1
-28 -4 -20 -10 -41 -15 -131 -31 -29 -5 -59 -14 -67 -21 -8 -6 -34 -13 -59
-14 -25 -2 -51 -7 -58 -13 -6 -5 -38 -12 -70 -14 -33 -3 -62 -10 -66 -16 -3
-6 -49 -20 -101 -31 -52 -11 -105 -23 -117 -27 -18 -5 -23 -2 -24 12 0 16 -2
15 -9 -3 -9 -21 -25 -28 -57 -24 -7 1 -13 -2 -13 -7 0 -12 -74 -26 -120 -23
-24 2 -45 -5 -64 -20 -20 -16 -46 -23 -97 -27 -38 -2 -69 -9 -69 -13 0 -5 -11
-9 -25 -9 -14 0 -25 -4 -25 -10 0 -5 -16 -10 -35 -10 -20 0 -52 -7 -72 -15
-45 -19 -53 -19 -53 0 0 11 11 15 40 15 22 0 40 5 40 10 0 6 -4 10 -9 10 -21
0 -71 59 -71 84 0 24 -4 26 -39 26 -37 0 -39 2 -45 38 -9 57 -7 90 6 94 7 3
-1 16 -20 33 -28 24 -32 35 -32 77 0 50 19 109 42 131 7 7 40 22 73 34 33 11
80 29 105 38 25 10 61 21 80 26 80 18 126 33 140 45 8 7 34 15 56 17 23 3 57
12 75 20 19 8 48 20 64 27 36 15 174 62 265 91 36 11 72 25 80 30 37 22 83 38
125 45 25 3 52 13 60 20 7 8 23 14 34 14 17 0 83 26 153 61 10 5 32 9 48 9 18
0 29 4 25 10 -3 6 1 10 10 10 9 0 29 6 43 14 27 13 103 48 112 51 3 1 12 5 21
9 9 4 27 8 40 10 13 1 46 12 72 24 27 12 56 22 66 22 9 0 26 7 37 15 10 8 26
14 34 15 14 0 369 111 415 130 11 4 73 25 138 45 l117 37 0 40 c0 28 -4 39
-12 35 -7 -2 -67 -21 -133 -41 -66 -20 -250 -79 -410 -131 -470 -153 -574
-185 -618 -191 -23 -4 -47 -11 -53 -16 -6 -4 -36 -15 -65 -23 -110 -31 -165
-48 -194 -61 -16 -8 -70 -25 -120 -39 -49 -14 -103 -33 -118 -41 -16 -8 -33
-12 -37 -9 -5 3 -58 -13 -118 -35 -60 -22 -116 -40 -124 -40 -9 0 -37 -10 -64
-22 -27 -12 -76 -25 -109 -29 -33 -4 -61 -12 -63 -18 -2 -6 -16 -11 -32 -11
-15 0 -30 -6 -33 -13 -6 -15 -85 -37 -152 -41 -27 -1 -51 -8 -53 -14 -2 -7
-21 -12 -43 -12 -39 0 -39 0 -39 40 0 29 4 40 15 40 8 0 15 -7 15 -16 0 -17
22 -14 28 4 2 7 -3 12 -12 12 -24 0 -19 15 15 49 23 23 40 31 66 31 35 0 36 0
18 20 -18 19 -17 20 13 31 24 8 32 17 32 35 0 19 5 24 24 24 14 0 27 4 31 9 3
5 29 17 58 27 28 9 57 20 62 24 6 5 30 11 55 14 49 6 109 25 131 42 20 15 101
44 124 44 11 0 29 7 39 15 11 8 30 15 42 15 12 0 27 6 33 14 6 7 33 16 60 20
27 3 54 13 61 21 6 7 25 17 41 20 16 4 31 11 34 16 4 5 17 9 30 9 13 0 27 5
30 10 3 6 15 10 27 10 11 0 32 6 46 14 15 8 56 24 92 36 36 12 74 26 85 30 11
4 39 15 62 24 23 8 61 24 85 34 62 27 117 49 163 63 22 7 44 17 49 21 6 4 20
8 33 8 13 0 23 4 23 8 0 4 21 14 47 20 26 7 61 19 78 26 16 8 104 40 195 71
91 31 174 61 185 65 21 8 45 16 228 75 150 48 147 46 147 106 0 60 29 64 -290
-42 -129 -43 -244 -80 -255 -82 -11 -2 -27 -7 -35 -10 -8 -3 -40 -13 -70 -22
-30 -9 -68 -20 -85 -26 -16 -6 -39 -13 -50 -16 -16 -4 -17 -3 -5 6 8 6 11 11
7 11 -5 0 -21 -8 -35 -19 -29 -20 -198 -81 -224 -81 -9 0 -29 -6 -45 -14 -15
-8 -55 -22 -88 -30 -87 -21 -179 -49 -185 -56 -7 -8 -153 -55 -163 -52 -5 1
-23 -4 -40 -12 -18 -9 -77 -27 -132 -41 -109 -29 -232 -68 -282 -91 -17 -8
-37 -14 -45 -14 -7 0 -24 -6 -38 -13 -44 -23 -163 -66 -202 -73 -21 -3 -38
-10 -38 -14 0 -4 -26 -13 -57 -20 -32 -7 -69 -19 -83 -25 -14 -7 -43 -16 -65
-20 -22 -4 -46 -12 -53 -17 -7 -6 -28 -11 -47 -10 -19 1 -37 -3 -40 -8 -3 -6
-16 -10 -28 -10 -12 0 -58 -18 -102 -40 -44 -22 -90 -40 -103 -40 -12 0 -40
-9 -62 -20 -22 -11 -46 -20 -55 -20 -9 0 -40 -11 -68 -24 -115 -54 -144 -65
-180 -71 -20 -4 -40 -11 -43 -16 -3 -5 -21 -9 -40 -9 -19 0 -34 -4 -34 -9 0
-9 -178 -71 -204 -71 -26 0 -34 32 -37 150 -1 63 -7 135 -11 160 -5 25 -6 103
-2 173 l6 129 26 -7 c20 -5 30 -1 44 17 15 19 18 20 18 6 0 -15 9 -18 49 -18
44 0 51 3 82 40 19 22 42 40 52 40 9 0 26 9 37 20 11 11 20 16 20 10 0 -6 47
-10 120 -10 100 0 120 3 120 15 0 8 4 15 9 15 17 0 72 62 67 76 -3 8 0 11 9 8
8 -3 25 6 38 20 30 32 37 33 37 1 0 -14 5 -25 10 -25 6 0 10 -18 10 -40 0 -22
5 -40 10 -40 13 0 2 -73 -11 -78 -5 -2 0 -15 11 -29 11 -14 20 -35 20 -47 1
-33 21 -62 63 -90 45 -31 51 -32 44 -6 -3 10 0 21 7 23 18 6 13 101 -14 234
-18 93 -21 132 -14 160 9 36 12 37 89 60 44 13 98 32 120 43 22 10 54 21 71
25 17 3 41 15 52 25 12 11 30 20 41 20 11 0 41 11 67 25 26 14 56 25 68 25 12
0 30 7 40 15 11 8 29 15 41 15 12 0 30 7 41 15 10 8 29 15 41 15 12 0 25 5 28
10 8 13 72 40 96 40 10 0 36 9 58 21 22 11 44 18 50 15 5 -3 16 5 25 19 9 14
23 25 32 25 20 0 112 39 146 62 14 10 33 18 42 18 9 0 33 9 53 20 21 11 52 23
70 26 18 3 33 9 33 13 0 8 56 33 120 52 25 7 66 23 91 36 26 13 52 23 58 23 6
0 19 4 29 9 59 32 99 47 110 44 6 -3 12 0 12 5 0 5 12 13 28 18 35 10 73 25
137 54 71 33 221 95 280 116 39 14 79 30 90 35 68 30 178 69 193 69 10 0 22 4
28 9 5 5 66 28 137 51 l127 42 0 68 c0 67 -15 101 -36 81 -5 -5 -31 -14 -59
-20 -27 -5 -66 -14 -85 -19 -64 -18 -517 -177 -600 -210 -14 -5 -68 -27 -120
-47 -52 -21 -104 -41 -115 -46 -27 -11 -121 -48 -167 -65 -21 -8 -55 -20 -75
-28 -21 -8 -72 -27 -113 -41 -41 -15 -131 -47 -200 -72 -69 -24 -143 -49 -165
-55 -22 -6 -49 -14 -60 -19 -11 -5 -45 -18 -75 -29 -69 -26 -101 -41 -120 -57
-9 -6 -40 -19 -70 -27 -83 -22 -123 -35 -145 -45 -24 -10 -159 -51 -195 -58
-14 -3 -54 -17 -90 -31 -40 -15 -81 -24 -107 -23 -40 2 -43 0 -43 -24 0 -14
-6 -25 -13 -25 -8 0 -42 -14 -76 -31 -34 -17 -67 -29 -74 -26 -23 9 -57 113
-57 177 0 17 -5 30 -10 30 -6 0 -8 15 -4 40 5 27 3 40 -5 40 -8 0 -10 19 -7
63 2 34 5 77 5 95 1 31 3 32 42 32 39 0 41 1 37 28 -4 26 -2 27 29 24 28 -4
33 -1 33 16 0 12 4 24 10 27 6 4 10 -5 10 -19 0 -16 6 -26 15 -26 11 0 15 11
15 38 0 32 5 41 25 50 14 6 25 16 25 21 0 5 18 12 40 16 25 4 40 12 40 21 0
10 13 14 45 14 33 0 45 4 45 14 0 20 39 46 67 46 12 0 26 6 30 14 10 17 53 31
53 17 0 -8 7 -7 20 1 11 7 20 18 20 25 0 8 12 13 29 13 54 0 91 12 91 29 0 12
19 24 64 39 35 12 71 22 80 22 9 0 16 6 16 14 0 9 17 15 50 18 50 5 90 29 90
55 0 7 9 13 19 13 11 0 32 11 48 24 16 14 41 28 55 31 14 4 35 14 45 23 27 24
60 42 77 42 7 0 25 9 39 20 14 11 45 27 69 35 43 15 121 50 189 86 20 10 44
19 53 19 9 0 16 3 16 8 0 7 48 32 63 32 9 0 32 10 122 52 l50 23 -264 3 c-170
1 -268 -1 -275 -8 -5 -5 -18 -10 -28 -10 -10 0 -18 -3 -18 -7 0 -9 -49 -33
-67 -33 -7 0 -13 -4 -13 -8 0 -5 -17 -15 -37 -23 -21 -8 -69 -29 -108 -48 -38
-18 -86 -37 -105 -42 -56 -12 -114 -36 -118 -48 -2 -6 -12 -11 -23 -11 -11 0
-27 -4 -37 -9 -19 -10 -51 -23 -99 -41 -18 -7 -33 -16 -33 -21 0 -5 -7 -9 -16
-9 -9 0 -30 -6 -47 -14 -18 -8 -39 -17 -47 -20 -28 -12 -56 -31 -74 -49 -10
-9 -29 -17 -43 -17 -15 0 -34 -6 -42 -13 -9 -8 -43 -20 -76 -27 -48 -10 -56
-14 -40 -21 13 -6 1 -8 -38 -6 -31 1 -57 -1 -57 -4 0 -4 -35 -10 -77 -14 -43
-3 -88 -9 -99 -12 -16 -3 -23 1 -27 16 -4 17 0 21 19 21 23 0 24 2 24 80 0 64
3 80 15 80 11 0 15 11 15 40 0 29 -4 40 -15 40 -23 0 -18 20 10 42 28 22 32
38 9 38 -25 0 -6 18 34 31 34 11 92 60 92 78 0 5 -35 11 -77 16 -43 4 -114 12
-158 17 -111 14 -2819 22 -2810 8 3 -5 1 -10 -5 -10 -6 0 -9 -4 -5 -9 3 -6 -3
-15 -14 -20 -29 -16 -36 -13 -17 7 35 40 -10 42 -991 42 l-931 0 -5 -22 c-4
-14 0 -27 11 -35 15 -13 15 -14 -8 -9 -14 3 -29 6 -34 6 -4 0 -6 6 -3 14 12
31 -23 41 -145 42 -155 2 -161 1 -153 -42 3 -21 2 -34 -4 -34 -6 0 -17 -16
-25 -35 -14 -32 -17 -34 -36 -23 -22 14 -26 51 -10 93 12 32 -8 44 -47 26 -21
-10 -24 -16 -18 -39 4 -15 8 -34 9 -42 2 -22 -43 -25 -59 -3 -12 14 -14 15
-15 3 0 -14 41 -58 48 -51 2 1 6 0 10 -3 3 -3 0 -6 -7 -6 -10 0 -11 -10 -6
-37 11 -63 25 -63 25 -1 0 71 14 81 33 24 15 -43 14 -44 -17 -92 -17 -27 -34
-50 -38 -52 -5 -2 -8 -12 -8 -23 0 -19 1 -19 30 3 16 12 32 30 36 40 8 26 23
22 56 -14 18 -20 26 -38 22 -48 -4 -8 -10 -32 -14 -53 -8 -40 -35 -77 -55 -77
-22 0 -32 -63 -16 -89 8 -12 12 -12 24 -2 13 10 18 4 32 -36 9 -26 26 -65 36
-85 15 -28 21 -65 25 -153 3 -64 14 -150 24 -193 11 -42 20 -93 20 -112 0 -36
51 -343 70 -417 26 -107 32 -131 41 -168 6 -22 13 -57 16 -77 l5 -38 -47 0
c-38 0 -48 -4 -52 -20 -6 -23 -19 -26 -26 -7 -2 6 -8 9 -13 4 -4 -4 0 -15 10
-25 14 -12 20 -14 23 -4 6 17 83 16 83 -1 0 -7 21 -21 46 -32 42 -17 49 -25
80 -91 19 -40 34 -80 34 -89 0 -25 29 -89 46 -102 15 -11 14 -16 -2 -52 -22
-47 -30 -50 -45 -18 -6 12 -32 38 -59 56 -27 18 -63 49 -80 67 -17 19 -34 34
-38 34 -5 0 -37 29 -72 65 -37 36 -68 61 -73 56 -5 -5 -6 -53 -3 -107 4 -55 9
-211 11 -347 4 -304 18 -382 98 -559 30 -64 21 -84 -18 -42 -19 21 -25 23 -25
10 0 -9 4 -24 9 -34 5 -9 18 -37 31 -62 136 -275 240 -400 333 -400 26 0 40
-24 52 -90 3 -19 10 -46 14 -60 18 -53 32 -160 35 -255 2 -66 9 -113 19 -139
10 -21 17 -46 17 -55 0 -9 7 -25 15 -35 8 -11 15 -33 15 -49 0 -15 7 -35 15
-43 8 -9 18 -27 21 -42 20 -94 115 -288 207 -425 26 -37 53 -82 62 -100 8 -18
30 -42 48 -54 49 -33 78 -100 97 -218 13 -89 28 -266 23 -282 -3 -6 -17 -16
-33 -23 -50 -21 -62 -42 -55 -94 9 -61 42 -109 83 -121 17 -5 32 -13 32 -17 0
-4 6 -8 13 -9 6 0 25 -16 41 -35 23 -28 27 -39 20 -62 -4 -15 -8 -30 -8 -34
-1 -4 -9 -17 -18 -28 -10 -11 -18 -23 -18 -26 0 -3 -10 -20 -22 -37 -54 -76
-56 -82 -60 -280 -2 -67 -2 -67 -31 -67 -16 0 -26 4 -22 10 3 6 15 10 25 10
14 0 18 5 13 16 -5 13 -16 15 -50 11 -37 -4 -43 -2 -43 14 0 14 -7 19 -30 19
-16 0 -30 -4 -30 -10 0 -5 -4 -10 -10 -10 -5 0 -10 6 -10 13 0 14 40 37 65 37
10 0 15 11 15 35 0 20 7 47 16 61 12 17 14 28 7 35 -15 15 -54 -50 -43 -70 6
-12 1 -19 -21 -28 -29 -12 -59 -8 -59 8 0 20 -111 -76 -116 -100 -3 -14 -7
-32 -10 -39 -2 -6 1 -31 5 -55 10 -46 50 -158 51 -142 1 11 29 -35 30 -47 0
-17 -19 -7 -25 13 -4 11 -13 18 -20 16 -7 -3 -18 0 -24 6 -7 7 -17 12 -24 12
-16 0 -46 82 -46 128 -1 52 -25 48 -51 -8 -12 -25 -26 -45 -33 -44 -28 3 -37
-2 -37 -26 0 -14 5 -25 10 -25 6 0 10 -4 10 -10 0 -5 -18 -10 -40 -10 -23 0
-40 5 -40 11 0 7 -12 9 -34 5 -35 -7 -66 11 -66 38 0 7 -9 31 -21 55 -11 24
-26 75 -34 114 -7 40 -23 113 -35 162 -12 50 -24 100 -25 112 -10 70 -93 418
-111 463 -8 19 -26 89 -39 155 -14 66 -32 140 -39 165 -8 25 -19 68 -25 95
-27 124 -72 297 -82 317 -5 10 -9 27 -9 38 0 11 -16 77 -35 147 -19 70 -37
148 -40 173 -4 25 -12 63 -20 85 -33 98 -107 389 -125 485 -4 25 -22 101 -40
170 -17 69 -35 145 -40 170 -4 25 -24 108 -44 184 -20 77 -36 154 -36 172 0
18 -4 35 -9 38 -5 3 -11 16 -14 28 -10 47 -79 305 -97 368 -11 36 -28 112 -39
170 -11 58 -29 141 -40 185 -11 44 -27 114 -36 155 -9 41 -25 104 -35 140 -11
36 -24 92 -29 125 -5 33 -22 105 -39 161 -16 56 -33 121 -36 145 -4 24 -11 53
-15 64 -14 34 -55 196 -66 260 -4 22 -24 103 -45 180 -21 77 -43 167 -50 200
-7 33 -16 69 -20 80 -10 27 -60 207 -75 275 -39 166 -88 354 -110 420 -14 41
-25 83 -25 93 0 16 -30 17 -490 17 l-490 0 0 -5120z m2917 5104 c-3 -3 -12 -4
-19 -1 -8 3 -5 6 6 6 11 1 17 -2 13 -5z m-237 -31 c0 -19 -3 -24 -10 -17 -6 6
-8 18 -4 27 9 24 14 21 14 -10z m1950 17 c0 -5 -7 -10 -16 -10 -8 0 -12 5 -9
10 3 6 10 10 16 10 5 0 9 -4 9 -10z m-44 -9 c-3 -5 -17 -11 -31 -13 -20 -4
-23 -3 -14 8 12 15 54 20 45 5z m-1782 -36 c-5 -11 -2 -13 10 -9 13 5 16 -1
16 -27 l0 -34 -25 30 c-28 34 -32 55 -10 55 9 0 12 -6 9 -15z m-180 -14 c10
-11 15 -25 11 -32 -6 -8 -13 -5 -26 12 -31 40 -18 56 15 20z m4336 -1 c0 -16
-7 -20 -30 -20 -19 0 -30 5 -30 14 0 13 9 17 53 25 4 0 7 -8 7 -19z m-4272
-22 c2 -13 -4 -31 -12 -38 -14 -11 -16 -7 -16 30 0 46 23 53 28 8z m1827 2
c-3 -5 -13 -10 -21 -10 -8 0 -12 5 -9 10 3 6 13 10 21 10 8 0 12 -4 9 -10z
m2845 -40 c0 -6 -25 -10 -57 -9 -42 0 -52 3 -38 9 28 12 95 12 95 0z m-130
-254 c-7 -7 -10 1 -9 25 0 32 1 33 10 10 6 -16 6 -28 -1 -35z m-116 -108 c3
-27 2 -48 -3 -48 -12 0 -30 67 -24 91 8 30 20 11 27 -43z m28 -50 c-8 -8 -9
-4 -5 13 4 13 8 18 11 10 2 -7 -1 -18 -6 -23z m-20 -50 c-8 -8 -9 -4 -5 13 4
13 8 18 11 10 2 -7 -1 -18 -6 -23z m-3684 -315 c-5 -25 -28 -28 -28 -4 0 12 6
21 16 21 9 0 14 -7 12 -17z m3908 -10 c-10 -10 -19 5 -10 18 6 11 8 11 12 0 2
-7 1 -15 -2 -18z m-4116 -28 c0 -8 -4 -15 -9 -15 -5 0 -11 7 -15 15 -3 9 0 15
9 15 8 0 15 -7 15 -15z m40 -14 c0 -11 3 -26 6 -34 4 -12 0 -14 -15 -10 -21 5
-26 19 -15 47 9 22 24 20 24 -3z m140 10 c0 -6 -4 -13 -10 -16 -5 -3 -10 1
-10 9 0 9 5 16 10 16 6 0 10 -4 10 -9z m3940 -1 c0 -5 -4 -10 -10 -10 -5 0
-10 5 -10 10 0 6 5 10 10 10 6 0 10 -4 10 -10z m-3870 -56 c0 -13 -4 -24 -10
-24 -5 0 -10 -6 -10 -14 0 -7 -7 -19 -15 -26 -13 -10 -13 -15 -3 -21 17 -11 7
-18 -15 -10 -17 6 -17 8 2 33 12 14 21 31 21 37 0 6 5 11 10 11 6 0 8 11 4 26
-5 19 -4 25 5 20 6 -4 11 -18 11 -32z m-50 -10 c0 -8 -4 -12 -10 -9 -5 3 -10
10 -10 16 0 5 5 9 10 9 6 0 10 -7 10 -16z m200 6 c0 -5 -5 -10 -11 -10 -5 0
-7 5 -4 10 3 6 8 10 11 10 2 0 4 -4 4 -10z m-280 -35 c-6 -8 -9 -19 -6 -24 4
-5 2 -12 -3 -16 -6 -3 -15 3 -20 13 -11 21 3 42 27 42 12 0 12 -3 2 -15z
m-282 -5 c-1 -3 5 -16 15 -30 24 -35 23 -80 -3 -80 -11 0 -20 -4 -20 -10 0 -5
13 -10 29 -10 16 0 31 -3 34 -7 2 -5 2 -2 1 5 -6 24 17 12 34 -18 9 -17 22
-28 29 -26 6 3 13 -4 16 -14 4 -14 -2 -20 -22 -23 -20 -3 -17 -4 12 -6 45 -1
52 1 52 16 0 19 14 27 28 15 7 -6 18 -7 26 -3 11 7 9 11 -8 20 -26 14 -27 26
-3 28 9 1 30 5 46 9 24 6 28 4 23 -8 -3 -9 0 -15 6 -15 7 1 29 -3 50 -7 27 -6
37 -13 37 -27 0 -11 5 -19 10 -19 6 0 10 -7 10 -15 0 -8 5 -15 11 -15 7 0 9
10 5 26 -5 17 -3 23 4 19 17 -10 33 5 20 20 -14 17 -3 42 21 48 30 8 22 36
-16 54 -19 9 -32 20 -29 25 3 4 10 6 15 2 6 -3 17 2 25 12 14 18 14 18 29 -1
9 -11 14 -28 12 -37 -3 -9 4 -25 15 -35 25 -22 55 -6 50 27 -3 20 0 22 21 16
16 -4 27 -1 29 6 3 7 7 6 11 -5 3 -9 2 -17 -3 -17 -15 0 -12 -19 5 -36 9 -9
24 -13 37 -10 13 3 17 3 11 0 -7 -3 -13 -14 -13 -24 0 -10 -4 -22 -10 -25 -18
-11 -10 -25 15 -25 18 0 25 -5 25 -20 0 -17 -7 -20 -40 -20 -22 0 -40 -4 -40
-10 0 -5 18 -10 40 -10 29 0 40 -4 40 -15 0 -8 5 -15 10 -15 6 0 10 -8 10 -19
0 -10 6 -24 14 -30 22 -19 30 6 12 34 -16 25 -22 90 -8 98 4 3 20 3 35 0 21
-4 26 -10 22 -23 -7 -22 22 -53 41 -46 8 3 21 9 29 12 10 4 15 0 15 -10 0 -12
-9 -16 -34 -16 -26 0 -35 -5 -39 -22 -9 -31 0 -35 23 -10 25 26 52 28 85 6 24
-16 25 -15 25 5 0 13 4 19 10 16 6 -4 27 -1 47 6 33 10 37 10 52 -10 9 -12 31
-23 49 -25 19 -2 41 -11 49 -19 14 -14 14 -17 -1 -32 -20 -20 -21 -35 -1 -35
14 0 19 -12 16 -33 -1 -7 44 0 62 10 4 3 6 12 5 21 -2 11 11 20 45 30 60 17
56 35 -7 38 -52 3 -65 9 -50 23 5 6 31 5 62 -1 43 -9 56 -8 62 2 12 19 41 5
33 -16 -4 -12 -3 -15 5 -10 7 4 15 1 18 -8 3 -9 18 -16 32 -16 25 0 25 -1 6
-15 -19 -15 -19 -15 0 -30 13 -10 32 -13 60 -9 70 9 87 14 81 24 -11 18 30 -3
47 -25 24 -28 23 -29 -22 -49 -40 -17 -49 -29 -30 -41 6 -3 10 1 10 9 0 18 4
19 49 10 17 -4 31 -13 31 -20 0 -8 4 -14 9 -14 5 0 4 -11 -2 -25 -14 -30 -23
-32 -30 -5 -3 11 -11 20 -17 20 -8 0 -10 -9 -6 -26 6 -21 3 -27 -15 -31 -18
-5 -20 -11 -16 -42 3 -20 3 -30 0 -23 -2 6 -18 12 -34 12 -21 0 -32 -6 -39
-22 -5 -13 -9 -17 -9 -10 -1 14 -47 16 -56 2 -3 -5 2 -10 11 -10 26 0 3 -21
-25 -23 -14 -1 -29 -13 -37 -29 -16 -31 -54 -39 -54 -12 0 15 -3 15 -26 -1
-21 -14 -28 -15 -35 -4 -6 11 -12 10 -27 -4 -20 -19 -37 -23 -27 -7 9 15 -24
25 -38 11 -14 -14 -87 -15 -87 -1 0 6 -16 10 -35 10 -22 0 -38 6 -41 15 -5 13
-8 13 -27 0 -31 -21 -64 -19 -72 5 -6 20 -31 27 -37 11 -1 -5 -15 -13 -31 -16
-21 -6 -26 -4 -22 6 3 8 1 20 -4 28 -8 12 -14 12 -40 2 -16 -7 -36 -11 -43 -8
-7 3 -2 6 12 6 18 1 21 4 11 10 -9 6 -11 18 -7 34 5 20 1 29 -15 41 l-21 15
26 26 c14 14 26 30 26 35 0 5 8 11 18 13 9 2 2 2 -15 0 -25 -3 -33 0 -33 12 0
8 -4 15 -10 15 -13 0 -13 -13 -1 -25 6 -6 1 -18 -15 -32 l-24 -21 0 23 c0 29
-24 49 -47 40 -17 -7 -16 -8 2 -15 18 -8 18 -9 -5 -9 -15 -1 -35 -13 -50 -31
-24 -29 -60 -41 -60 -20 0 6 5 10 10 10 19 0 10 18 -12 23 -28 8 -48 -9 -45
-35 1 -12 -4 -23 -12 -26 -10 -3 -12 2 -7 21 3 14 2 29 -4 32 -6 4 -10 -5 -10
-19 0 -14 -6 -26 -12 -26 -7 0 -5 -5 5 -11 9 -5 17 -13 17 -17 0 -4 -8 -9 -17
-10 -98 -11 -103 -13 -97 -38 7 -27 10 -26 -101 -29 -103 -4 -135 -13 -179
-52 -45 -40 -67 -74 -51 -80 6 -2 17 -8 25 -13 13 -9 13 -11 0 -20 -13 -9 -13
-11 0 -20 12 -7 8 -12 -20 -24 -19 -8 -33 -16 -30 -17 3 0 39 -3 80 -5 41 -3
89 -9 107 -14 18 -4 33 -5 35 0 2 4 32 10 67 14 54 6 63 5 58 -8 -3 -8 1 -17
9 -20 24 -9 46 -7 39 3 -15 26 108 30 136 5 8 -8 34 -14 56 -14 23 0 46 -6 52
-14 13 -16 81 -11 92 6 7 11 61 -11 54 -22 -2 -4 10 -8 28 -8 66 -2 83 -4 65
-9 -32 -8 -14 -37 27 -45 12 -2 20 -11 20 -23 0 -17 -7 -20 -50 -21 -70 -1
-75 -2 -75 -19 0 -8 -8 -15 -18 -15 -10 0 -22 -4 -28 -9 -5 -6 -20 -12 -34
-14 -14 -2 -32 -7 -40 -10 -8 -3 -71 -15 -140 -27 -69 -12 -138 -28 -155 -35
-16 -7 -49 -19 -72 -26 -23 -6 -52 -23 -64 -35 -13 -13 -28 -24 -35 -24 -6 0
-17 -7 -25 -16 -7 -8 -21 -13 -31 -11 -10 3 -18 0 -18 -7 0 -6 -8 -16 -18 -22
-10 -6 -19 -25 -20 -42 -2 -28 1 -31 53 -48 31 -9 58 -21 61 -25 3 -5 20 -9
37 -9 20 0 39 -8 50 -21 12 -13 24 -18 37 -14 14 4 20 2 20 -9 0 -9 5 -16 11
-16 5 0 7 -5 3 -12 -4 -6 -3 -8 4 -4 6 3 18 -1 27 -10 12 -13 19 -14 28 -5 19
19 55 12 75 -14 11 -14 28 -25 38 -25 16 0 17 -2 4 -10 -12 -7 -8 -10 15 -10
17 0 50 -6 75 -13 25 -7 52 -13 60 -12 8 1 21 3 28 3 6 1 12 11 12 22 0 14 6
20 23 19 16 0 18 -2 7 -7 -8 -4 -16 -13 -18 -19 -3 -18 33 -16 52 2 8 8 22 15
31 15 9 0 14 4 10 9 -3 5 -1 12 5 16 6 3 13 -1 16 -9 7 -19 30 -21 37 -3 4 9
8 9 15 -1 8 -11 16 -11 52 1 43 14 80 12 80 -4 0 -5 -7 -9 -15 -9 -8 0 -15 -4
-15 -9 0 -6 -12 -16 -27 -23 -42 -20 -41 -46 1 -63 19 -8 46 -15 60 -15 38 0
39 -25 0 -46 -19 -10 -34 -22 -34 -26 0 -4 -9 -5 -20 -3 -12 2 -28 1 -36 -2
-23 -9 13 -45 38 -37 12 3 18 0 18 -9 0 -15 33 -25 63 -19 9 2 17 9 17 17 0
18 25 26 38 13 8 -8 14 -3 22 16 9 26 14 28 45 22 27 -5 37 -3 41 8 3 9 9 14
14 11 4 -2 18 7 30 20 13 14 29 25 37 25 7 0 13 5 13 10 0 6 7 10 15 10 15 0
128 111 173 170 13 16 32 30 43 30 10 0 27 9 36 20 10 11 25 20 34 20 25 0 50
11 44 19 -2 4 8 21 23 37 15 17 28 43 30 59 1 16 9 33 17 38 8 4 15 19 15 32
0 14 5 25 10 25 6 0 10 -7 10 -15 0 -8 4 -15 10 -15 5 0 7 6 4 14 -11 28 25
25 46 -4 12 -17 27 -30 35 -30 7 0 15 -9 18 -20 4 -15 14 -20 36 -20 34 0 47
-8 94 -57 16 -18 42 -35 57 -38 18 -4 31 -16 40 -40 7 -19 18 -33 23 -32 5 1
13 -11 18 -27 4 -16 12 -32 16 -35 8 -6 57 -100 58 -111 0 -3 13 -18 28 -34
15 -16 27 -33 27 -39 0 -6 9 -2 19 7 12 11 21 14 26 7 3 -6 14 -11 24 -11 10
0 23 -11 29 -25 15 -32 62 -36 62 -5 0 11 5 20 10 20 6 0 10 -7 10 -16 0 -14
7 -15 38 -10 34 5 42 2 67 -24 19 -19 39 -30 57 -30 16 0 28 -5 28 -13 0 -41
222 -60 305 -26 44 18 46 19 74 19 10 0 35 17 55 38 32 32 36 42 31 70 -4 24
-2 34 10 38 8 3 15 12 15 20 0 20 28 17 62 -7 29 -21 46 -21 33 0 -3 6 -11 9
-16 6 -5 -4 -9 -1 -9 4 0 6 -7 11 -15 11 -8 0 -15 2 -15 5 0 7 32 58 41 65 3
3 9 12 12 20 4 10 6 8 6 -7 1 -19 4 -20 25 -10 12 6 23 18 22 26 -1 14 18 22
85 35 24 5 26 10 31 73 3 38 2 114 -1 171 -3 56 -3 102 0 102 9 0 1 80 -13
127 -9 34 -9 46 0 55 9 9 12 7 12 -10 0 -18 7 -23 39 -28 45 -7 44 -4 62 -149
6 -55 8 -151 4 -245 -8 -184 8 -426 34 -525 10 -38 22 -91 25 -117 4 -26 11
-50 17 -53 5 -4 7 -11 3 -16 -3 -5 -1 -15 4 -22 8 -10 20 -69 26 -132 7 -62
20 -115 28 -115 6 0 8 -10 5 -22 -4 -12 0 -36 7 -52 8 -17 21 -60 30 -96 10
-36 24 -82 32 -103 8 -21 12 -56 10 -80 -3 -23 -2 -36 1 -29 12 29 24 10 18
-28 -4 -24 -3 -40 3 -40 5 0 12 -33 16 -72 9 -111 17 -162 29 -169 5 -4 10
-47 10 -95 0 -49 2 -74 4 -56 4 28 7 31 24 22 22 -12 28 -82 7 -77 -6 1 -14
-6 -16 -15 -2 -13 3 -18 17 -18 12 0 21 -6 21 -14 0 -8 4 -16 10 -18 5 -1 11
-24 14 -50 4 -45 3 -48 -20 -48 -13 0 -24 5 -24 10 0 6 -9 10 -20 10 -16 0
-20 7 -20 30 l0 30 -80 0 c-47 0 -80 4 -80 10 0 6 -18 10 -40 10 l-40 0 0 40
0 40 -40 0 c-29 0 -40 4 -40 15 0 11 -11 15 -40 15 l-40 0 0 -40 0 -40 -45 0
c-43 0 -45 1 -39 25 3 14 2 31 -4 38 -17 22 -20 62 -7 97 8 19 14 27 14 18 1
-12 9 -18 26 -18 22 0 25 4 25 39 0 26 -5 41 -15 45 -12 4 -15 18 -11 66 2 33
9 67 16 75 7 8 10 21 7 29 -4 10 -1 13 9 9 7 -3 14 -10 14 -16 0 -6 2 -8 5 -5
3 3 1 18 -6 34 -11 31 1 118 24 159 6 11 11 46 13 78 2 55 19 116 36 128 4 3
3 19 -4 35 -7 18 -8 42 -3 60 l8 29 8 -25 c6 -18 7 -14 3 15 -3 22 -5 45 -5
50 0 6 2 52 4 103 2 57 7 96 14 100 9 6 10 25 4 67 -5 33 -6 75 -4 93 4 25 2
32 -11 32 -9 0 -16 8 -16 20 0 13 -7 20 -20 20 -13 0 -20 -7 -20 -20 0 -13 -7
-20 -20 -20 -18 0 -20 -7 -22 -62 -3 -101 -3 -105 -16 -121 -21 -25 -23 -57
-4 -58 11 0 9 -4 -8 -10 -34 -14 -36 -17 -17 -32 11 -8 15 -20 11 -35 -5 -18
-9 -20 -20 -11 -21 17 -23 9 -14 -41 5 -25 9 -61 9 -80 0 -33 -1 -34 -10 -10
-10 25 -11 25 -25 5 -13 -18 -13 -21 2 -32 9 -6 14 -18 11 -25 -2 -7 2 -21 11
-30 14 -17 13 -18 -16 -18 -23 0 -30 -4 -26 -14 4 -10 -6 -20 -30 -30 -40 -17
-66 -39 -66 -55 0 -6 -4 -11 -8 -11 -4 0 -6 -29 -4 -65 4 -54 2 -65 -11 -65
-8 0 -18 -6 -20 -12 -3 -7 -6 -3 -6 10 -1 15 -7 22 -21 22 -23 0 -27 -17 -6
-22 12 -2 11 -8 -5 -27 l-20 -24 -6 22 c-6 22 -63 60 -63 41 0 -5 6 -10 14
-10 21 0 8 -39 -20 -57 -15 -9 -34 -13 -49 -9 -14 4 -25 2 -25 -4 0 -6 28 -10
67 -10 60 0 65 -1 48 -14 -19 -13 -18 -15 15 -28 30 -13 32 -16 15 -21 -17 -6
-20 -14 -16 -57 2 -39 -1 -56 -15 -71 -13 -15 -19 -16 -26 -7 -5 9 -8 6 -8 -9
0 -16 -6 -23 -20 -23 -15 0 -20 -7 -20 -26 0 -17 6 -28 20 -31 26 -7 26 -23 0
-23 -27 0 -53 60 -33 75 12 9 12 16 2 40 -7 17 -11 35 -10 42 1 6 -3 14 -9 18
-5 3 -10 -1 -10 -9 0 -8 -6 -18 -12 -22 -7 -4 -10 -4 -6 1 13 14 -12 45 -37
45 -14 0 -25 5 -25 10 0 6 11 10 24 10 31 0 39 12 22 35 -9 13 -25 18 -52 17
-53 -3 -114 8 -114 19 0 5 10 14 23 19 20 8 18 9 -13 10 -23 1 -29 4 -18 8 13
5 15 11 8 22 -5 8 -10 25 -10 37 0 24 -22 43 -28 25 -2 -7 -12 -12 -22 -12
-10 0 -20 -6 -22 -12 -3 -9 -9 -8 -22 5 -10 9 -23 17 -29 17 -7 0 -6 -4 3 -10
13 -9 13 -10 0 -9 -8 0 -24 4 -35 8 -19 8 -19 8 2 15 14 4 20 12 16 22 -4 10
0 12 11 8 12 -4 16 0 16 15 0 12 6 21 13 21 18 0 54 70 50 95 -5 29 -42 42
-106 38 -46 -3 -57 0 -57 12 0 19 -24 19 -40 0 -7 -8 -16 -13 -20 -10 -5 3
-11 1 -15 -5 -3 -5 -13 -10 -22 -10 -8 0 -40 -22 -70 -50 -30 -27 -59 -50 -65
-50 -5 0 -21 -9 -35 -20 -14 -11 -35 -20 -46 -20 -11 0 -30 -11 -43 -25 -37
-40 -107 -38 -178 6 -27 16 -56 27 -64 24 -8 -3 -20 -1 -26 3 -6 5 -45 13 -86
17 -157 16 -172 15 -237 -10 -34 -14 -71 -25 -82 -25 -35 0 -24 -30 32 -85 28
-28 53 -55 53 -61 1 -5 5 -26 8 -46 6 -34 5 -38 -15 -38 -19 0 -21 -4 -15 -30
6 -31 -7 -42 -18 -15 -9 24 -24 18 -71 -29 -29 -30 -46 -41 -53 -34 -18 18
-44 1 -37 -23 6 -19 5 -20 -15 -9 -20 10 -21 10 -11 -8 9 -16 5 -25 -20 -52
-29 -30 -30 -32 -10 -37 38 -10 22 -23 -19 -17 -30 5 -40 3 -40 -7 0 -10 -3
-10 -12 -1 -19 19 -28 14 -28 -13 0 -14 -5 -25 -11 -25 -6 0 -8 7 -5 16 4 9 1
22 -4 30 -9 9 -5 17 14 29 21 14 24 20 15 37 -8 15 -14 17 -22 9 -16 -16 -27
-14 -27 5 0 8 -5 12 -10 9 -6 -3 -13 1 -16 10 -8 20 -34 1 -34 -26 0 -11 -4
-19 -10 -19 -10 0 -60 -69 -60 -82 0 -5 10 -8 23 -8 20 -1 19 -3 -13 -30 -32
-26 -34 -31 -22 -51 12 -19 12 -21 -1 -16 -18 7 -67 -42 -67 -66 0 -9 -9 -21
-21 -28 -14 -7 -19 -17 -16 -30 7 -26 -18 -85 -38 -93 -9 -3 -13 -10 -10 -16
3 -6 -1 -13 -10 -16 -11 -5 -15 -14 -11 -30 4 -14 1 -26 -8 -31 -21 -13 -31
-53 -12 -53 10 0 16 -9 16 -23 0 -31 35 -67 66 -67 28 0 42 24 25 44 -13 15
15 44 69 71 19 10 42 24 51 32 32 28 204 22 204 -7 0 -8 10 -16 23 -18 13 -2
27 -14 32 -27 9 -23 59 -65 79 -65 6 0 11 -4 11 -8 0 -5 11 -14 25 -20 14 -7
31 -16 38 -22 31 -26 86 -58 112 -64 23 -6 26 -9 14 -17 -10 -7 -6 -9 16 -7
17 1 41 -5 54 -14 17 -12 30 -14 47 -8 16 6 33 6 48 -2 14 -6 35 -8 48 -5 39
10 43 8 43 -23 l1 -30 -88 4 c-66 2 -88 0 -88 -9 0 -7 -10 -15 -22 -19 -36 -9
-88 -7 -88 4 0 6 -13 10 -30 10 -18 0 -30 -5 -30 -13 0 -7 -9 -23 -20 -34 -12
-14 -15 -23 -8 -25 6 -2 11 -19 11 -36 0 -26 4 -31 17 -27 11 4 23 -3 33 -19
11 -16 23 -23 35 -19 12 3 22 -2 25 -11 4 -11 19 -16 42 -16 20 0 34 -4 31 -8
-2 -4 9 -14 25 -21 20 -9 29 -20 29 -36 0 -30 14 -39 30 -20 14 17 40 20 40 5
0 -5 3 -9 8 -8 15 4 82 -35 82 -48 0 -12 4 -12 20 -4 25 13 40 5 40 -21 0 -19
15 -27 22 -11 5 13 118 24 118 12 0 -5 5 -10 10 -10 6 0 10 7 10 16 0 27 57
76 80 69 14 -5 20 -2 20 9 0 9 8 16 18 16 9 0 37 12 62 26 30 17 54 24 71 20
23 -4 26 -2 22 14 -3 12 3 22 19 31 12 6 26 17 30 22 4 8 15 7 34 -1 26 -12
26 -13 9 -32 -18 -19 -17 -20 13 -20 34 0 50 16 33 33 -15 15 -14 30 3 24 10
-4 12 0 8 16 -2 12 -9 27 -14 34 -5 7 -5 14 2 18 5 3 10 15 10 27 0 16 4 19
24 14 31 -8 56 2 56 21 0 10 9 13 28 11 22 -2 28 -8 30 -36 3 -27 -1 -34 -23
-42 -14 -6 -37 -10 -51 -10 -13 0 -24 -4 -24 -10 0 -5 9 -10 20 -10 11 0 20
-5 20 -10 0 -6 16 -3 38 6 59 26 73 28 83 13 13 -22 11 -39 -6 -39 -13 0 -15
-7 -9 -35 6 -34 -8 -50 -19 -22 -3 6 -6 -3 -6 -22 -1 -33 -2 -34 -17 -15 -15
18 -15 18 -10 -8 5 -21 1 -30 -14 -38 -11 -6 -20 -18 -20 -28 0 -15 -2 -15
-10 -2 -8 12 -10 11 -10 -5 0 -22 -47 -55 -67 -48 -7 3 -13 0 -13 -5 0 -6 6
-12 13 -15 16 -5 -7 -33 -45 -53 -29 -15 -68 -6 -68 16 0 6 -5 10 -10 10 -6 0
-8 -11 -4 -25 7 -29 2 -31 -32 -9 -23 15 -26 15 -44 -1 -10 -9 -23 -14 -28
-11 -14 8 -43 -4 -37 -15 7 -11 -31 -49 -49 -49 -8 0 -16 5 -18 10 -2 6 -30
12 -63 13 -59 2 -59 2 -66 36 -8 40 -32 66 -53 58 -21 -8 -32 -37 -18 -46 13
-8 -30 -59 -46 -53 -13 4 -17 -24 -4 -32 5 -3 7 -19 4 -36 -4 -29 -6 -30 -51
-27 -32 3 -45 8 -43 17 4 15 -16 30 -40 30 -11 0 -18 -8 -18 -20 0 -11 -9 -29
-19 -39 -19 -19 -20 -19 -35 14 -21 44 -36 52 -53 29 -9 -12 -16 -15 -21 -9
-4 6 -20 12 -36 13 -16 1 -35 7 -43 14 -11 9 -17 9 -25 -3 -7 -11 -11 -11 -15
-1 -9 22 -23 13 -23 -15 -1 -24 -2 -25 -11 -11 -5 10 -9 25 -7 34 5 29 -26 39
-71 24 -22 -7 -38 -17 -34 -23 3 -5 -3 -7 -14 -3 -17 6 -21 1 -27 -34 -5 -35
-9 -40 -32 -38 -23 2 -25 5 -19 38 l6 35 -20 -25 c-19 -24 -20 -24 -40 -6 -12
11 -24 17 -26 14 -3 -3 -23 12 -44 33 -21 22 -41 39 -45 39 -5 0 -24 16 -44
36 -23 23 -42 34 -54 31 -13 -4 -18 0 -18 14 0 10 -7 19 -15 19 -8 0 -15 7
-15 16 0 10 -6 14 -14 11 -16 -6 -40 16 -29 26 10 10 -18 37 -38 37 -11 0 -18
3 -18 8 4 23 -4 32 -27 32 -17 0 -28 6 -31 20 -3 11 -10 20 -15 20 -12 0 -57
52 -58 68 0 6 5 12 10 12 6 0 10 18 10 40 0 36 -2 40 -25 40 -25 0 -33 14 -15
25 5 3 10 13 10 21 0 8 -4 13 -9 10 -11 -7 -41 3 -41 14 0 5 10 10 23 12 15 2
23 11 25 28 2 14 9 31 14 38 7 8 7 12 -3 12 -10 1 -8 4 4 11 9 5 17 16 17 22
0 16 -36 47 -55 47 -8 0 -15 6 -15 13 -1 35 -108 108 -118 79 -7 -22 -38 -12
-56 18 -14 24 -15 34 -6 45 10 12 3 19 -41 38 -30 14 -58 21 -63 16 -11 -10
-46 8 -66 34 -8 11 -30 35 -47 52 -18 17 -33 36 -33 42 0 6 -9 9 -20 6 -24 -6
-27 12 -3 25 10 6 14 16 10 26 -4 10 -3 15 3 11 6 -3 10 -14 11 -23 1 -26 34
-77 52 -80 32 -6 30 26 -5 60 -18 18 -32 38 -30 45 2 7 -4 13 -13 13 -8 0 -15
5 -15 11 0 8 -14 10 -40 6 -46 -6 -54 11 -17 36 l22 15 -24 9 c-20 8 -21 11
-8 16 21 8 23 47 3 47 -8 0 -17 6 -19 13 -3 6 -6 1 -6 -13 -1 -14 -4 -35 -7
-47 -6 -21 -7 -21 -30 -6 -18 11 -22 19 -14 28 12 15 0 55 -24 74 -12 10 -14
17 -5 27 16 20 4 17 -17 -3 -16 -16 -16 -16 -9 7 4 14 11 27 15 30 4 3 12 15
19 27 9 19 8 24 -11 38 -16 12 -19 19 -10 22 6 3 12 12 12 20 0 9 -6 13 -15 9
-8 -3 -16 -1 -16 4 -1 6 -2 14 -3 19 0 5 -4 13 -8 17 -13 12 -9 21 12 27 20 5
29 37 10 37 -5 0 -25 -14 -44 -30 l-34 -31 -25 25 c-30 30 -21 59 13 38 17
-11 20 -10 20 7 0 22 -24 45 -42 38 -7 -2 -17 8 -23 24 -5 16 -14 29 -20 29
-12 0 -12 -71 0 -89 4 -8 2 -16 -5 -21 -9 -5 -9 -9 -1 -14 6 -4 11 -15 11 -24
-1 -15 -2 -15 -13 -2 -7 8 -20 21 -29 29 -17 12 -18 11 -13 -20 4 -27 3 -30
-4 -14 -5 11 -10 45 -11 75 0 30 -4 72 -9 93 -7 28 -6 41 5 52 20 20 18 47 -3
43 -11 -2 -19 -14 -21 -31 -2 -15 -12 -32 -23 -37 -27 -15 -25 5 5 54 21 36
22 42 10 61 -8 12 -14 32 -14 46 0 13 -2 40 -6 59 -6 30 -8 32 -15 15 -7 -17
-8 -17 -8 7 -1 15 -6 30 -12 34 -9 5 -10 -1 -5 -22 4 -16 11 -54 16 -84 4 -30
9 -59 10 -65 6 -27 -1 -47 -15 -41 -12 4 -15 -5 -15 -53 0 -33 -3 -67 -7 -77
-4 -11 -3 -15 5 -10 14 8 25 -28 17 -54 -6 -19 -7 -18 -30 6 -23 25 -32 55
-34 117 -3 79 -7 103 -18 115 -19 20 -16 42 7 42 11 0 20 4 20 10 0 5 -7 7
-15 4 -11 -5 -13 -2 -9 10 4 10 1 16 -9 16 -20 0 -43 98 -27 114 12 12 40 -17
40 -41 0 -7 5 -13 11 -13 14 0 7 86 -9 102 -9 9 -13 7 -18 -5 -7 -19 -24 -13
-24 8 0 8 13 15 33 17 30 3 32 5 29 38 -1 19 -8 40 -16 45 -9 7 -12 33 -11 85
1 60 -3 78 -17 92 -18 18 -18 18 9 12 26 -7 27 -7 10 10 -9 10 -17 31 -17 48
0 21 -10 40 -35 64 -35 33 -40 59 -10 47 11 -4 15 2 15 23 0 47 -16 61 -25 22
-7 -31 -8 -28 -20 37 -13 73 -20 120 -35 245 -5 41 -13 101 -19 132 -5 32 -8
79 -5 105 10 105 13 187 19 393 11 467 16 510 61 581 13 21 24 43 24 48 0 5
13 15 30 22 42 19 55 59 54 161 -1 48 3 85 7 82 5 -3 11 2 14 10 16 51 14 49
31 35 14 -11 18 -10 30 6 8 10 14 24 14 31 0 7 8 18 18 23 15 9 15 10 -5 11
-13 0 -23 5 -23 11 0 7 9 9 22 6 16 -5 30 4 56 34 26 29 42 39 59 37 13 -2 22
-5 21 -8z m227 0 c3 -5 -1 -10 -9 -10 -9 0 -16 5 -16 10 0 6 4 10 9 10 6 0 13
-4 16 -10z m3915 -25 c2 22 4 25 7 10 6 -24 23 -44 23 -27 0 7 3 12 8 12 4 0
8 -23 9 -51 1 -28 8 -57 14 -65 10 -12 8 -13 -7 -8 -18 5 -18 5 -1 -9 23 -19
25 -127 2 -127 -11 0 -15 11 -15 39 0 22 -3 41 -7 43 -19 8 -42 79 -46 143 -3
44 -2 59 3 40 l8 -30 2 30z m-3775 -65 c3 -5 1 -10 -5 -10 -6 0 -8 -5 -5 -11
5 -6 13 -2 22 11 14 20 17 21 25 6 5 -9 6 -21 3 -26 -3 -6 -1 -10 4 -10 6 0
11 -7 11 -15 0 -8 -4 -15 -10 -15 -5 0 -10 5 -10 10 0 6 -18 10 -41 10 -36 0
-40 2 -34 20 4 12 2 20 -5 20 -6 0 -8 5 -5 10 3 6 15 10 25 10 10 0 22 -4 25
-10z m-208 -15 c8 -24 -1 -27 -36 -12 -34 15 -32 27 6 27 13 0 26 -7 30 -15z
m290 -7 c-3 -8 -6 -5 -6 6 -1 11 2 17 5 13 3 -3 4 -12 1 -19z m770 -84 c-3 -3
-12 -4 -19 -1 -8 3 -5 6 6 6 11 1 17 -2 13 -5z m-80 -10 c-3 -3 -12 -4 -19 -1
-8 3 -5 6 6 6 11 1 17 -2 13 -5z m133 -9 c0 -8 -4 -15 -10 -15 -5 0 -10 7 -10
15 0 8 5 15 10 15 6 0 10 -7 10 -15z m-1530 1 c0 -3 -4 -8 -10 -11 -5 -3 -10
-1 -10 4 0 6 5 11 10 11 6 0 10 -2 10 -4z m1490 -16 c0 -13 -7 -20 -20 -20
-13 0 -20 7 -20 20 0 13 7 20 20 20 13 0 20 -7 20 -20z m-140 0 c0 -5 -4 -10
-10 -10 -5 0 -10 5 -10 10 0 6 5 10 10 10 6 0 10 -4 10 -10z m213 -67 c-7 -2
-19 -2 -25 0 -7 3 -2 5 12 5 14 0 19 -2 13 -5z m2797 -33 c0 -22 -4 -40 -10
-40 -5 0 -10 18 -10 40 0 22 5 40 10 40 6 0 10 -18 10 -40z m-2600 -24 c0 -18
-16 -29 -30 -21 -13 8 -1 35 16 35 8 0 14 -6 14 -14z m-302 -28 c-6 -18 -28
-21 -28 -4 0 9 7 16 16 16 9 0 14 -5 12 -12z m532 -214 c0 -8 -4 -12 -10 -9
-5 3 -10 10 -10 16 0 5 5 9 10 9 6 0 10 -7 10 -16z m-65 -14 c3 -5 1 -10 -4
-10 -6 0 -11 5 -11 10 0 6 2 10 4 10 3 0 8 -4 11 -10z m660 -80 c4 -33 13 -64
20 -70 19 -16 29 -69 17 -94 -5 -11 -18 -40 -28 -64 -15 -37 -39 -62 -59 -62
-3 0 2 11 11 25 l16 25 -48 -15 c-27 -8 -50 -15 -51 -15 -1 0 -4 18 -8 40 -4
22 -11 42 -16 46 -5 3 -9 15 -9 28 0 12 -3 26 -7 30 -5 4 -8 36 -8 71 0 61 1
64 28 69 19 4 27 12 27 26 0 25 32 27 55 4 19 -20 24 -16 27 20 4 45 25 4 33
-64z m-1790 70 c-3 -5 -12 -10 -18 -10 -7 0 -6 4 3 10 19 12 23 12 15 0z
m1165 -20 c0 -5 -4 -10 -10 -10 -5 0 -10 5 -10 10 0 6 5 10 10 10 6 0 10 -4
10 -10z m-970 -18 c0 -14 -11 -21 -26 -15 -8 3 -11 9 -8 14 7 11 34 12 34 1z
m-105 -22 c3 -5 2 -10 -4 -10 -5 0 -13 5 -16 10 -3 6 -2 10 4 10 5 0 13 -4 16
-10z m1742 -26 c2 -13 1 -15 -4 -4 -3 8 -11 19 -17 23 -7 6 -6 7 4 4 8 -2 16
-12 17 -23z m-262 -74 c-3 -5 -10 -10 -16 -10 -5 0 -9 5 -9 10 0 6 7 10 16 10
8 0 12 -4 9 -10z m-110 -90 c-32 -21 -41 -20 -32 5 4 8 18 15 34 15 l28 0 -30
-20z m155 16 c0 -3 -4 -8 -10 -11 -5 -3 -10 -1 -10 4 0 6 5 11 10 11 6 0 10
-2 10 -4z m-2050 -56 c0 -5 -7 -10 -15 -10 -8 0 -15 5 -15 10 0 6 7 10 15 10
8 0 15 -4 15 -10z m2070 -2 c0 -7 -12 -21 -25 -31 -20 -14 -24 -15 -19 -2 3 8
10 15 15 15 5 0 9 7 9 15 0 8 5 15 10 15 6 0 10 -6 10 -12z m-180 -19 c10 -17
7 -25 -19 -50 -29 -27 -51 -37 -51 -23 0 6 53 93 57 94 1 0 7 -9 13 -21z
m-1705 1 c-3 -5 -15 -10 -26 -10 -11 0 -17 5 -14 10 3 6 15 10 26 10 11 0 17
-4 14 -10z m1810 0 c-3 -5 -11 -10 -16 -10 -6 0 -7 5 -4 10 3 6 11 10 16 10 6
0 7 -4 4 -10z m-1392 -57 c-7 -2 -21 -2 -30 0 -10 3 -4 5 12 5 17 0 24 -2 18
-5z m-1479 -157 c3 -14 19 -38 36 -54 30 -31 38 -52 20 -52 -18 0 -11 -39 9
-50 22 -11 36 2 27 25 -5 14 11 75 20 75 2 0 29 -14 59 -31 40 -22 55 -37 55
-52 1 -22 1 -22 16 -2 15 19 16 18 11 -15 -2 -19 1 -46 8 -60 7 -14 12 -41 11
-60 -1 -30 -5 -35 -28 -38 -27 -3 -62 -32 -39 -32 6 0 11 -4 11 -10 0 -14 -27
-12 -33 3 -5 12 -20 -2 -51 -48 -14 -20 -33 -125 -23 -125 3 0 18 23 33 50 15
28 33 50 39 50 7 0 15 9 18 20 6 25 27 27 27 3 0 -10 9 -33 20 -51 11 -18 20
-41 20 -52 0 -10 5 -22 10 -25 6 -3 10 -18 10 -33 0 -21 -2 -24 -10 -12 -9 13
-10 13 -11 0 -3 -27 -5 -35 -13 -58 -10 -30 -1 -39 20 -22 20 17 34 -1 34 -46
0 -40 21 -146 31 -160 5 -6 4 -35 0 -65 -6 -36 -5 -56 2 -61 12 -7 31 -247 23
-290 -3 -16 0 -28 7 -31 7 -2 8 -8 4 -13 -4 -5 -11 -4 -15 2 -4 6 -20 14 -36
18 -32 8 -82 39 -106 67 -39 45 -48 59 -75 122 -16 37 -33 67 -37 67 -5 0 -8
7 -8 15 0 7 -6 18 -13 22 -17 10 -30 70 -17 78 16 10 11 77 -9 135 -11 30 -22
84 -26 120 -4 36 -16 112 -27 170 -15 81 -20 154 -22 318 -2 197 3 248 18 188z
m1428 -288 c21 -23 38 -45 38 -50 0 -11 -38 -10 -45 2 -3 6 -17 10 -30 10 -14
0 -43 7 -65 16 l-40 16 27 24 c41 35 70 31 115 -18z m2708 23 c0 -19 -23 -35
-34 -24 -14 15 -5 43 14 43 13 0 20 -7 20 -19z m-2251 -23 c-1 -18 -2 -19 -6
-5 -2 9 -8 15 -13 12 -5 -3 -7 -12 -3 -20 6 -16 -12 -21 -22 -6 -6 10 21 41
36 41 5 0 8 -10 8 -22z m3371 -98 c0 -25 5 -40 13 -41 6 0 -1 -7 -18 -14 l-30
-14 42 -6 42 -7 -36 -19 c-21 -11 -41 -19 -46 -19 -5 0 -38 -14 -72 -30 -35
-17 -98 -39 -142 -50 -43 -11 -79 -24 -81 -30 -2 -5 -14 -7 -26 -4 -12 3 -35
-2 -51 -10 -17 -9 -39 -16 -50 -16 -11 0 -29 -6 -40 -14 -11 -7 -37 -16 -57
-20 -21 -4 -38 -11 -38 -16 0 -5 -21 -12 -47 -15 -27 -3 -78 -22 -115 -40
-105 -54 -158 -42 -158 36 0 41 34 94 53 82 16 -10 101 -3 105 8 2 5 21 9 43
9 28 0 39 4 39 15 0 9 10 15 26 15 25 0 26 2 22 45 -3 48 5 58 42 48 16 -4 23
0 27 16 3 11 10 22 17 23 6 0 16 2 22 2 6 1 18 7 27 14 9 7 31 14 49 14 18 0
51 9 73 18 54 24 95 33 95 20 0 -6 32 -10 80 -10 64 0 80 -3 80 -15 0 -11 11
-15 40 -15 l40 0 0 40 c0 29 4 40 15 40 11 0 15 -11 15 -40z m-3635 10 c3 -5
1 -10 -4 -10 -6 0 -11 5 -11 10 0 6 2 10 4 10 3 0 8 -4 11 -10z m42 4 c-3 -3
-12 -4 -19 -1 -8 3 -5 6 6 6 11 1 17 -2 13 -5z m-127 -99 c0 -8 -4 -15 -9 -15
-13 0 -22 16 -14 24 11 11 23 6 23 -9z m3751 -207 c16 -20 18 -20 19 -5 0 9 7
17 15 17 12 0 15 -16 15 -80 0 -50 4 -80 11 -80 7 0 9 -48 5 -152 -6 -183 -7
-196 -24 -207 -7 -4 -10 -15 -6 -24 3 -9 2 -17 -2 -17 -5 -1 -28 -5 -51 -9
-29 -6 -43 -5 -46 3 -3 8 -17 8 -50 -1 -26 -7 -61 -13 -77 -13 -20 0 -30 -5
-30 -15 0 -8 -7 -15 -15 -15 -9 0 -33 -9 -55 -20 -22 -11 -59 -20 -82 -20 -24
-1 -68 -9 -98 -20 -60 -21 -90 -25 -90 -11 0 13 26 21 66 21 19 0 34 5 34 10
0 6 -18 10 -40 10 l-40 0 0 40 0 40 -40 0 c-40 0 -40 0 -40 -39 0 -33 4 -40
23 -44 l22 -4 -22 -8 c-25 -8 -32 -45 -9 -45 21 0 31 -21 15 -31 -8 -5 -25 -9
-37 -9 -13 0 -31 -9 -40 -20 -23 -27 -60 -17 -68 19 -11 52 -46 156 -56 169
-8 8 -7 12 3 12 11 0 11 2 1 8 -7 5 -17 36 -23 70 -6 34 -15 62 -20 62 -5 0
-9 11 -9 25 0 15 -6 38 -14 53 -12 23 -12 31 0 52 7 14 13 32 14 41 0 22 31
33 42 17 8 -10 11 -10 15 0 2 6 10 12 17 12 6 0 29 9 51 20 22 11 52 20 67 20
15 0 28 5 28 10 0 6 10 10 23 10 13 0 28 5 34 11 6 6 37 17 70 25 115 26 161
39 169 47 4 4 16 7 27 7 11 0 34 9 51 19 17 11 60 25 96 31 36 6 76 15 90 20
38 12 40 12 61 -12z m-3446 -58 c-3 -5 -13 -10 -21 -10 -8 0 -14 5 -14 10 0 6
9 10 21 10 11 0 17 -4 14 -10z m2365 -259 c0 -6 -4 -13 -10 -16 -5 -3 -10 1
-10 9 0 9 5 16 10 16 6 0 10 -4 10 -9z m2170 -196 c0 -8 -7 -15 -15 -15 -8 0
-15 7 -15 15 0 8 7 15 15 15 8 0 15 -7 15 -15z m70 -138 c3 -38 2 -71 -1 -73
-4 -2 -63 -7 -132 -10 -126 -7 -126 -7 -130 -33 -3 -17 -5 -11 -6 16 -2 62 5
73 50 73 35 0 39 3 39 25 0 23 4 25 40 25 29 0 40 -4 40 -15 0 -11 11 -15 40
-15 29 0 40 4 40 15 0 11 -11 15 -40 15 -36 0 -40 2 -40 26 0 24 2 25 48 22
l47 -3 5 -68z m50 -18 c0 -28 -4 -39 -15 -39 -11 0 -15 11 -15 38 0 21 3 42 6
45 14 13 24 -6 24 -44z m-340 1 c0 -5 -4 -10 -10 -10 -5 0 -10 5 -10 10 0 6 5
10 10 10 6 0 10 -4 10 -10z m-44 -116 c-5 -20 -13 -24 -46 -24 -22 0 -40 5
-40 10 0 6 18 10 40 10 l40 0 2 48 c1 38 2 41 5 13 3 -19 2 -44 -1 -57z m-166
36 c0 -31 4 -40 17 -40 15 0 14 -2 -2 -20 -10 -11 -16 -29 -13 -43 4 -20 1
-23 -24 -19 -27 4 -28 3 -28 -37 0 -37 2 -41 25 -41 14 0 25 5 25 11 0 5 5 7
12 3 9 -6 9 -9 0 -12 -7 -2 -12 -21 -12 -43 l0 -39 41 0 41 0 -3 43 -4 42 123
-3 122 -3 0 -80 c0 -64 -3 -79 -15 -79 -11 0 -15 11 -15 40 0 22 -4 40 -10 40
-5 0 -10 -18 -10 -40 0 -38 -2 -40 -30 -40 -28 0 -30 -2 -30 -40 0 -22 -4 -40
-10 -40 -5 0 -10 18 -10 40 0 29 -4 40 -15 40 -11 0 -15 -12 -15 -45 0 -51 4
-49 -99 -39 -56 6 -61 9 -61 30 0 21 -5 24 -40 24 -36 0 -40 -2 -40 -25 0 -16
6 -25 15 -25 11 0 15 -11 15 -40 0 -29 -4 -40 -15 -40 -11 0 -15 11 -15 40 l0
40 -40 0 c-36 0 -40 3 -40 25 0 14 -4 25 -9 25 -5 0 -18 -11 -29 -25 -24 -31
-42 -32 -42 -4 0 12 -7 27 -16 34 -10 6 -18 31 -21 61 -7 76 -12 94 -28 94
-11 0 -15 11 -15 41 0 34 -3 40 -16 35 -14 -5 -16 -1 -10 25 3 17 6 44 6 60 0
16 5 29 10 29 6 0 10 -7 10 -15 0 -11 11 -15 40 -15 29 0 40 4 40 15 0 8 5 15
11 15 6 0 20 11 31 25 16 21 28 25 69 25 37 0 49 4 49 15 0 11 11 15 40 15
l40 0 0 -40z m-533 -85 c19 -19 38 -35 43 -35 6 0 10 -25 10 -55 l0 -55 -120
0 -120 0 0 54 c0 34 -5 57 -12 60 -7 3 -3 3 10 0 32 -8 82 5 82 22 0 8 -8 15
-17 15 -17 1 -17 2 0 6 9 2 17 9 17 14 0 5 16 9 36 9 29 0 44 -8 71 -35z m280
29 c-3 -3 -12 -4 -19 -1 -8 3 -5 6 6 6 11 1 17 -2 13 -5z m940 -50 c3 -8 11
-14 19 -14 8 0 14 -10 14 -24 0 -13 7 -26 15 -30 8 -3 15 -10 15 -16 0 -5 -7
-10 -15 -10 -8 0 -15 7 -15 15 0 11 -11 15 -40 15 -29 0 -40 -4 -40 -15 0 -23
-15 -18 -49 16 -17 17 -31 41 -31 54 0 21 5 24 43 27 54 4 77 -1 84 -18z m378
-4 c4 -6 -5 -10 -20 -10 -15 0 -24 4 -20 10 3 6 12 10 20 10 8 0 17 -4 20 -10z
m-2985 -20 c0 -5 -2 -10 -4 -10 -3 0 -8 5 -11 10 -3 6 -1 10 4 10 6 0 11 -4
11 -10z m1100 -25 c0 -19 -3 -35 -7 -36 -5 0 -15 -2 -25 -4 -12 -2 -17 6 -20
36 -3 37 -2 39 24 39 25 0 28 -3 28 -35z m1328 23 c-6 -18 -28 -21 -28 -4 0 9
7 16 16 16 9 0 14 -5 12 -12z m-1388 -38 c0 -13 -5 -18 -15 -14 -16 7 -19 17
-8 27 12 13 23 7 23 -13z m1440 -15 c0 -8 -7 -15 -15 -15 -16 0 -20 12 -8 23
11 12 23 8 23 -8z m560 -55 c0 -29 -4 -40 -15 -40 -11 0 -15 11 -15 40 0 29 4
40 15 40 11 0 15 -11 15 -40z m-3010 10 c0 -5 -4 -10 -10 -10 -5 0 -10 5 -10
10 0 6 5 10 10 10 6 0 10 -4 10 -10z m2913 -20 c9 -11 17 -24 17 -29 0 -5 10
-11 23 -14 21 -3 21 -4 3 -12 -13 -6 -21 -5 -24 3 -2 7 -16 12 -30 12 -45 0
-57 14 -36 39 23 26 25 26 47 1z m-1503 -70 c0 -29 -4 -40 -15 -40 -11 0 -15
11 -15 40 0 29 4 40 15 40 11 0 15 -11 15 -40z m41 -40 c5 0 9 -18 9 -40 0
-29 -4 -40 -15 -40 -12 0 -15 15 -13 83 1 45 3 63 5 40 2 -24 8 -43 14 -43z
m1189 40 c0 -29 -4 -40 -15 -40 -11 0 -15 11 -15 40 0 29 4 40 15 40 11 0 15
-11 15 -40z m57 18 c-3 -8 -6 -5 -6 6 -1 11 2 17 5 13 3 -3 4 -12 1 -19z m116
1 l42 0 -39 -16 c-40 -17 -57 -9 -55 27 0 10 2 11 6 3 2 -8 23 -13 46 -14z
m-3406 -41 c-3 -7 -5 -2 -5 12 0 14 2 19 5 13 2 -7 2 -19 0 -25z m-2847 18 c0
-2 -3 -11 -6 -20 -9 -23 -24 -20 -24 4 0 11 7 20 15 20 8 0 15 -2 15 -4z
m3385 -26 c3 -5 1 -10 -4 -10 -6 0 -11 5 -11 10 0 6 2 10 4 10 3 0 8 -4 11
-10z m3705 0 c0 -5 8 -10 17 -10 13 0 14 -3 6 -11 -9 -9 -16 -8 -27 4 -18 18
-20 27 -6 27 6 0 10 -4 10 -10z m135 0 c4 -6 1 -10 -4 -10 -14 0 -51 -37 -51
-50 0 -14 -17 -13 -26 2 -4 6 0 17 10 23 9 7 14 19 11 26 -6 16 51 24 60 9z
m-218 -67 c-2 -16 -4 -5 -4 22 0 28 2 40 4 28 2 -13 2 -35 0 -50z m-2907 25
c0 -18 3 -44 7 -58 6 -22 5 -24 -10 -11 -19 15 -24 101 -7 101 6 0 10 -15 10
-32z m1870 22 c0 -5 -4 -10 -9 -10 -6 0 -13 5 -16 10 -3 6 1 10 9 10 9 0 16
-4 16 -10z m983 -70 c7 -1 23 -10 36 -20 l23 -20 -23 -20 c-13 -10 -32 -19
-41 -20 -14 0 -18 -9 -18 -40 l0 -40 50 0 c47 0 63 -11 40 -25 -5 -3 -10 -2
-10 4 0 5 -19 11 -42 13 -43 3 -43 3 -46 44 -3 35 1 44 22 58 15 9 26 21 26
26 0 16 -63 50 -92 50 -16 0 -28 4 -28 9 0 5 18 7 40 4 40 -6 40 -5 42 28 1
29 2 28 5 -8 2 -24 9 -43 16 -43z m-2903 40 c0 -5 -2 -10 -4 -10 -3 0 -8 5
-11 10 -3 6 -1 10 4 10 6 0 11 -4 11 -10z m-2237 -47 c-5 -11 -8 -12 -13 -2
-5 7 -6 19 -3 26 5 11 8 12 13 2 5 -7 6 -19 3 -26z m5437 22 c0 -8 -7 -15 -15
-15 -16 0 -20 12 -8 23 11 12 23 8 23 -8z m-4300 -5 c0 -5 -2 -10 -4 -10 -3 0
-8 5 -11 10 -3 6 -1 10 4 10 6 0 11 -4 11 -10z m4165 0 c3 -5 -1 -10 -9 -10
-9 0 -16 5 -16 10 0 6 4 10 9 10 6 0 13 -4 16 -10z m-318 -6 c-3 -3 -12 -4
-19 -1 -8 3 -5 6 6 6 11 1 17 -2 13 -5z m373 -20 c0 -17 -22 -14 -28 4 -2 7 3
12 12 12 9 0 16 -7 16 -16z m-5230 -36 c0 -21 -14 -33 -37 -34 l-22 0 22 23
c25 25 37 29 37 11z m2190 -39 c0 -31 -4 -48 -10 -44 -5 3 -10 -1 -10 -9 0 -9
-4 -16 -10 -16 -5 0 -10 15 -10 33 0 24 3 28 10 17 7 -11 10 -4 10 28 0 23 5
42 10 42 6 0 10 -23 10 -51z m1263 44 c-13 -2 -33 -2 -45 0 -13 2 -3 4 22 4
25 0 35 -2 23 -4z m-450 -18 c4 -8 2 -17 -3 -20 -6 -4 -10 3 -10 14 0 25 6 27
13 6z m2174 1 c4 -8 19 -16 33 -19 16 -3 10 -5 -17 -6 -24 0 -43 -5 -43 -11 0
-5 -18 -10 -40 -10 -29 0 -40 4 -40 15 0 11 11 15 40 15 29 0 40 4 40 15 0 19
16 20 27 1z m-5307 -17 c0 -6 -4 -7 -10 -4 -5 3 -10 11 -10 16 0 6 5 7 10 4 6
-3 10 -11 10 -16z m-1643 -21 c-3 -8 -6 -5 -6 6 -1 11 2 17 5 13 3 -3 4 -12 1
-19z m4946 15 c-7 -2 -19 -2 -25 0 -7 3 -2 5 12 5 14 0 19 -2 13 -5z m1743
-69 c-4 -9 -19 -13 -48 -12 l-43 1 43 4 c42 4 42 4 44 46 1 38 2 39 5 9 3 -19
2 -40 -1 -48z m-2086 34 c0 -16 -3 -19 -11 -11 -6 6 -8 16 -5 22 11 17 16 13
16 -11z m-2793 -15 c2 -6 -4 -10 -13 -9 -10 2 -20 8 -22 15 -3 8 3 12 14 9 9
-1 19 -8 21 -15z m5193 7 c0 -5 -18 -10 -40 -10 -22 0 -40 5 -40 10 0 6 18 10
40 10 22 0 40 -4 40 -10z m-6953 -34 c-4 -9 -11 -16 -18 -16 -6 0 -8 7 -5 16
3 9 6 21 6 27 0 8 3 8 11 0 7 -7 9 -19 6 -27z m1784 11 c-10 -9 -11 -8 -5 6 3
10 9 15 12 12 3 -3 0 -11 -7 -18z m279 -19 c0 -30 -11 -68 -19 -68 -5 0 -7 59
-2 83 3 17 21 5 21 -15z m2583 5 c-18 -2 -48 -2 -65 0 -18 2 -4 4 32 4 36 0
50 -2 33 -4z m2233 -8 c9 -8 12 -20 9 -26 -5 -6 -12 -4 -21 8 -24 32 -15 45
12 18z m-5146 -20 c0 -8 -4 -15 -10 -15 -5 0 -10 7 -10 15 0 8 5 15 10 15 6 0
10 -7 10 -15z m-1923 -10 c3 -9 3 -19 -1 -22 -8 -9 -37 18 -30 28 8 14 24 11
31 -6z m214 -18 c-8 -8 -11 -7 -11 4 0 20 13 34 18 19 3 -7 -1 -17 -7 -23z
m1842 -97 c15 0 27 -5 27 -11 0 -6 9 -9 20 -6 11 3 33 -1 48 -8 33 -17 116 -4
145 23 10 9 20 16 21 14 0 -2 14 2 30 8 20 7 38 8 57 1 15 -5 30 -7 33 -4 3 3
12 1 20 -6 11 -9 15 -9 19 1 5 11 7 11 15 0 5 -7 13 -12 18 -11 5 2 29 -7 53
-19 25 -12 51 -22 58 -22 7 0 13 -4 13 -10 0 -14 -20 -12 -52 4 -16 9 -30 11
-33 5 -4 -5 -22 -9 -42 -9 -34 0 -50 -5 -164 -57 -66 -30 -172 -35 -261 -14
-52 12 -65 12 -150 -8 -51 -13 -106 -29 -123 -36 -16 -7 -41 -16 -55 -20 -14
-3 -34 -10 -45 -15 -131 -54 -231 -70 -352 -56 -67 8 -74 16 -47 55 13 18 23
22 45 17 20 -4 29 -1 29 8 0 7 12 19 28 27 15 8 32 21 39 29 8 9 12 10 13 3 0
-6 9 -9 20 -6 16 4 20 0 20 -17 0 -18 -4 -21 -24 -18 -17 4 -23 1 -19 -9 8
-20 46 -16 71 7 22 21 30 36 13 26 -5 -3 -14 1 -21 9 -10 12 -9 21 4 48 12 24
16 27 16 12 0 -11 7 -38 14 -60 16 -46 49 -56 54 -17 3 18 6 21 17 12 9 -8 15
-8 20 0 3 5 15 10 26 10 13 0 19 7 20 23 0 12 3 16 6 9 4 -10 13 -6 34 14 23
22 29 24 29 11 0 -9 7 -17 15 -17 17 0 17 0 6 57 -9 48 4 50 14 2 8 -37 33
-49 51 -25 11 16 13 16 16 1 3 -15 6 -15 29 3 14 12 38 24 52 27 29 8 36 32
12 41 -8 4 -15 12 -15 19 0 7 -7 16 -16 19 -12 5 -13 8 -2 20 9 10 17 11 26 4
13 -11 15 -6 13 27 -1 11 13 -10 31 -47 29 -58 37 -67 61 -68z m4767 110 c0
-5 -18 -10 -40 -10 -22 0 -40 5 -40 10 0 6 18 10 40 10 22 0 40 -4 40 -10z
m218 -18 c2 -7 -6 -12 -17 -12 -21 0 -27 11 -14 24 9 9 26 2 31 -12z m-6968
-25 c0 -5 -4 -5 -10 -2 -5 3 -10 14 -10 23 0 15 2 15 10 2 5 -8 10 -19 10 -23z
m6894 8 c-24 -18 -32 -18 -50 0 -14 13 -11 15 27 15 40 0 41 -1 23 -15z
m-5204 -4 c0 -6 -4 -13 -10 -16 -5 -3 -10 1 -10 9 0 9 5 16 10 16 6 0 10 -4
10 -9z m1370 -1 c0 -5 6 -10 14 -10 24 0 28 -47 7 -85 -14 -26 -20 -31 -25
-20 -3 8 0 15 5 15 7 0 9 9 4 23 -18 59 -22 87 -14 87 5 0 9 -4 9 -10z m3753
-17 c-13 -2 -33 -2 -45 0 -13 2 -3 4 22 4 25 0 35 -2 23 -4z m-5588 -13 c3 -5
1 -10 -4 -10 -6 0 -11 5 -11 10 0 6 2 10 4 10 3 0 8 -4 11 -10z m234 -15 c16
9 13 -15 -4 -49 -8 -15 -15 -35 -15 -43 0 -8 -5 -11 -11 -7 -7 4 -9 21 -5 43
3 23 2 31 -4 22 -7 -12 -10 -9 -15 11 -10 38 2 53 25 33 10 -9 24 -14 29 -10z
m-1392 0 c9 -25 -4 -29 -17 -6 -7 15 -7 21 0 21 6 0 13 -7 17 -15z m33 -92 c0
-36 -2 -64 -4 -62 -8 10 -13 129 -5 129 5 0 9 -30 9 -67z m50 26 c12 -16 20
-33 17 -35 -8 -8 -47 34 -47 51 0 22 6 19 30 -16z m1360 1 c0 -5 -2 -10 -4
-10 -3 0 -8 5 -11 10 -3 6 -1 10 4 10 6 0 11 -4 11 -10z m76 -47 c-7 -7 -26 7
-26 19 0 6 6 6 15 -2 9 -7 13 -15 11 -17z m-322 -10 c3 -8 -1 -21 -9 -29 -8
-9 -15 -20 -15 -25 0 -5 -4 -9 -10 -9 -5 0 -7 15 -4 33 3 17 6 37 6 44 2 15
25 5 32 -14z m3964 -36 l3 -47 -40 0 -41 0 0 44 c0 47 7 54 50 51 22 -1 25 -6
28 -48z m52 11 c0 -31 -3 -38 -20 -38 -16 0 -20 7 -20 33 0 38 3 44 25 44 11
0 15 -11 15 -39z m-5265 -8 c3 -5 -1 -10 -10 -10 -9 0 -13 5 -10 10 3 6 8 10
10 10 2 0 7 -4 10 -10z m55 -32 c0 -16 -3 -19 -11 -11 -6 6 -8 16 -5 22 11 17
16 13 16 -11z m72 -45 c11 -20 14 -34 8 -38 -6 -3 -10 3 -10 13 0 11 -7 25
-15 32 -8 7 -15 24 -14 39 1 22 2 23 8 6 3 -11 14 -34 23 -52z m72 1 c5 -14 4
-15 -9 -4 -17 14 -19 20 -6 20 5 0 12 -7 15 -16z m-164 -20 c0 -8 -4 -12 -10
-9 -5 3 -10 0 -10 -7 0 -9 -3 -9 -10 2 -15 23 -12 30 10 30 11 0 20 -7 20 -16z
m5243 -11 c-13 -2 -33 -2 -45 0 -13 2 -3 4 22 4 25 0 35 -2 23 -4z m-5173 -69
c0 -8 -4 -12 -10 -9 -5 3 -10 10 -10 16 0 5 5 9 10 9 6 0 10 -7 10 -16z m4688
-24 c12 0 22 -4 22 -10 0 -5 -18 -10 -40 -10 -22 0 -40 4 -40 9 0 6 -15 12
-32 14 -18 2 -10 3 17 1 28 -2 60 -4 73 -4z m-4668 -15 c0 -15 -11 -19 -40
-15 -20 3 -23 7 -15 19 10 17 55 13 55 -4z m4565 -25 c-3 -5 -13 -10 -21 -10
-8 0 -14 5 -14 10 0 6 9 10 21 10 11 0 17 -4 14 -10z m-428 -37 c-9 -2 -15 -9
-12 -14 3 -5 -1 -6 -9 -3 -22 8 -10 24 17 23 17 -1 18 -2 4 -6z m-2537 -23 c0
-5 -2 -10 -4 -10 -3 0 -8 5 -11 10 -3 6 -1 10 4 10 6 0 11 -4 11 -10z m655 0
c3 -5 -1 -10 -9 -10 -9 0 -16 5 -16 10 0 6 4 10 9 10 6 0 13 -4 16 -10z m1776
-54 c15 -16 11 -21 -16 -24 -14 -1 -25 3 -25 8 0 6 7 10 15 10 12 0 14 4 7 16
-5 9 -7 26 -3 38 5 18 6 17 9 -9 2 -16 8 -34 13 -39z m247 57 c-10 -2 -28 -2
-40 0 -13 2 -5 4 17 4 22 1 32 -1 23 -4z m-81 -19 c-3 -3 -12 -4 -19 -1 -8 3
-5 6 6 6 11 1 17 -2 13 -5z m-40 -10 c-3 -3 -12 -4 -19 -1 -8 3 -5 6 6 6 11 1
17 -2 13 -5z m-1907 -20 c0 -17 -22 -14 -28 4 -2 7 3 12 12 12 9 0 16 -7 16
-16z m1658 -51 c2 -9 -8 -13 -32 -13 -20 0 -36 4 -36 9 0 22 60 25 68 4z
m-341 -9 c-3 -3 -12 -4 -19 -1 -8 3 -5 6 6 6 11 1 17 -2 13 -5z m58 -14 c3 -5
-3 -10 -15 -10 -12 0 -18 5 -15 10 3 6 10 10 15 10 5 0 12 -4 15 -10z m1205
-26 c0 -2 -12 -4 -27 -4 -21 0 -24 3 -14 9 13 8 41 5 41 -5z m-70 -4 c-20 -13
-100 -13 -100 0 0 6 26 10 58 10 40 0 53 -3 42 -10z m575 -49 c3 -5 1 -12 -5
-16 -13 -8 -80 5 -80 16 0 12 77 12 85 0z m20 -31 c-3 -5 -11 -10 -16 -10 -6
0 -7 5 -4 10 3 6 11 10 16 10 6 0 7 -4 4 -10z m-165 -51 c0 -5 -7 -9 -15 -9
-15 0 -20 12 -9 23 8 8 24 -1 24 -14z m137 -3 c-2 -6 -20 -10 -41 -9 -20 1
-36 -2 -36 -7 0 -5 30 -10 68 -12 39 -2 67 -7 67 -14 0 -16 31 -44 49 -44 8 0
18 -4 21 -10 10 -17 32 -11 38 10 5 21 31 27 42 10 3 -5 15 -10 26 -10 13 0
18 -4 13 -12 -5 -8 -2 -9 10 -5 9 4 15 3 12 -2 -3 -5 8 -14 24 -20 18 -6 30
-6 30 0 0 5 18 9 40 9 23 0 40 -5 40 -11 0 -8 4 -8 14 0 15 13 66 5 66 -11 0
-5 6 -8 13 -7 23 4 127 -13 127 -21 0 -4 33 -11 73 -15 39 -4 85 -13 101 -21
16 -8 79 -17 140 -21 61 -3 105 -8 99 -10 -7 -3 -13 -15 -13 -27 0 -18 -40
-134 -69 -201 -34 -78 -77 -301 -97 -508 -4 -44 -10 -67 -18 -64 -6 2 -12 13
-14 25 -2 12 -8 22 -14 22 -6 0 -8 14 -4 38 4 26 3 31 -4 17 -8 -19 -9 -18
-10 5 -1 14 -3 32 -6 40 -6 21 -31 152 -44 230 -6 36 -15 69 -20 74 -5 5 -6
14 -4 21 11 27 -71 234 -92 235 -7 0 -14 7 -18 15 -3 8 -12 12 -21 9 -8 -3
-12 -10 -9 -15 3 -5 0 -9 -7 -9 -7 0 -8 -4 -2 -12 20 -27 33 -195 28 -363 -6
-207 -11 -281 -21 -320 l-8 -30 -7 25 c-7 24 -7 24 -8 3 -2 -44 -28 -23 -50
40 -12 34 -25 69 -28 77 -4 8 -8 22 -9 30 -5 27 -52 194 -59 213 -4 9 -11 17
-15 17 -7 0 -22 40 -24 65 -1 6 -13 11 -28 13 -23 3 -28 -1 -33 -30 -6 -36 -2
-137 6 -153 5 -9 8 -58 14 -245 1 -36 4 -72 7 -80 4 -8 16 -67 27 -130 12 -63
26 -119 31 -124 6 -6 10 -26 10 -45 0 -19 9 -62 19 -95 11 -34 24 -79 29 -101
27 -106 75 -266 107 -360 4 -11 -2 -6 -13 10 -11 17 -32 68 -47 115 -15 47
-38 109 -51 138 -13 29 -24 57 -24 62 0 6 -4 18 -9 28 -35 72 -43 93 -45 126
-2 21 -8 41 -14 45 -5 3 -13 23 -17 44 -4 20 -11 37 -16 37 -5 0 -9 7 -9 15 0
8 -5 23 -10 33 -6 9 -40 107 -75 217 -36 110 -70 208 -75 217 -6 10 -10 25
-10 33 0 8 -4 23 -9 33 -13 26 -28 62 -47 117 -10 28 -46 114 -81 193 -35 78
-63 147 -63 152 0 6 -4 18 -9 28 -24 47 -41 95 -41 114 0 29 -39 90 -53 81 -7
-3 -9 -3 -5 2 4 4 0 21 -8 37 -14 28 -14 29 4 26 10 -2 25 2 33 9 8 6 25 13
39 15 14 2 24 8 23 13 -1 6 15 9 38 7 24 -3 38 -9 36 -16z m-3564 -33 c-7 -2
-19 -2 -25 0 -7 3 -2 5 12 5 14 0 19 -2 13 -5z m3180 -5 c15 -7 30 -21 33 -30
3 -10 9 -18 14 -18 5 0 7 -7 4 -15 -8 -20 -31 -19 -44 3 -9 13 -12 14 -17 4
-4 -10 -14 -5 -35 18 -23 25 -26 35 -16 41 18 12 30 11 61 -3z m518 -13 l34
-14 -42 -1 c-32 0 -43 4 -43 15 0 19 9 19 51 0z m-2793 -23 c2 -7 -6 -12 -17
-12 -21 0 -27 11 -14 24 9 9 26 2 31 -12z m2372 -52 c0 -39 1 -40 35 -40 26 0
35 4 35 16 0 14 3 14 15 4 11 -9 13 -16 5 -24 -17 -17 -12 -46 9 -46 24 0 37
-18 32 -45 -2 -11 0 -17 5 -13 10 10 34 -10 34 -29 0 -7 8 -30 17 -51 9 -20
17 -41 18 -47 4 -24 38 -131 45 -140 5 -5 13 -35 18 -65 6 -30 16 -68 23 -85
7 -16 11 -35 10 -42 -1 -6 3 -14 8 -17 5 -3 7 -27 5 -53 -2 -27 -1 -42 2 -35
9 18 24 14 24 -7 0 -10 -8 -22 -17 -25 -14 -6 -15 -9 -4 -15 10 -6 10 -10 2
-16 -7 -4 -18 -2 -24 4 -7 6 -32 12 -55 13 -23 2 -44 9 -47 16 -6 17 -44 15
-51 -3 -9 -22 -21 -18 -20 7 1 15 -8 27 -29 37 -16 8 -33 19 -37 25 -5 7 -8 4
-8 -6 0 -10 -7 -18 -15 -18 -9 0 -27 -7 -40 -16 -25 -16 -25 -16 -25 13 0 29
-2 30 -60 36 -71 8 -103 24 -96 51 4 17 0 18 -42 12 -28 -3 -41 -2 -34 3 15 9
13 42 -3 42 -23 1 -35 25 -37 73 l-1 51 -7 -45 -7 -45 -2 40 c-2 57 -35 125
-60 125 -11 0 -23 5 -26 10 -15 25 -21 3 -22 -82 -2 -130 -1 -126 -18 -104 -8
11 -15 37 -15 58 0 21 -4 38 -10 38 -5 0 -10 20 -10 45 0 27 5 45 12 45 6 0 3
9 -7 20 -10 12 -25 18 -32 16 -7 -3 -15 -1 -18 4 -4 6 -1 10 4 10 6 0 11 5 11
10 0 6 -9 10 -20 10 -11 0 -20 -4 -20 -9 0 -5 -9 -7 -20 -4 -13 3 -20 14 -20
29 0 21 5 24 39 24 22 0 42 4 46 9 10 17 -12 21 -44 10 -23 -8 -35 -8 -46 1
-19 16 0 36 34 35 23 0 26 4 26 37 0 42 12 59 25 38 8 -13 10 -12 10 3 0 20
15 23 27 5 4 -7 17 -20 27 -28 18 -14 18 -13 11 8 -6 21 -5 23 13 13 29 -15
30 -14 24 15 -4 25 -3 26 22 22 22 -5 26 -2 21 13 -7 23 11 25 51 7 22 -10 28
-10 32 0 8 26 22 10 22 -28 0 -34 3 -40 20 -40 17 0 19 -3 11 -19 -8 -14 -7
-22 4 -31 23 -19 29 -6 27 57 -1 56 12 64 21 13 3 -16 5 -11 6 16 1 36 5 43
27 48 14 4 34 4 44 1 23 -7 60 27 60 55 0 11 7 20 15 20 11 0 15 -11 15 -40z
m-183 -32 c-3 -8 -6 -5 -6 6 -1 11 2 17 5 13 3 -3 4 -12 1 -19z m1556 -5 c-7
-2 -21 -2 -30 0 -10 3 -4 5 12 5 17 0 24 -2 18 -5z m28 -87 c5 3 2 -12 -7 -33
-9 -21 -21 -47 -25 -58 -46 -109 -120 -395 -121 -465 0 -19 -3 -39 -8 -45 -4
-5 -10 -31 -14 -57 -16 -121 -19 -138 -29 -138 -6 0 -7 53 -2 153 7 148 34
306 70 413 41 123 114 262 123 236 2 -6 8 -10 13 -6z m-4864 -363 c3 -9 -8
-10 -35 -4 -2 1 0 6 3 12 8 12 27 7 32 -8z m3096 -3 c33 -39 9 -67 -33 -40
-13 8 -12 10 3 10 19 0 23 15 7 25 -12 7 -13 25 -2 25 4 0 15 -9 25 -20z m17
-80 c0 -5 -9 -10 -20 -10 -11 0 -20 5 -20 10 0 6 9 10 20 10 11 0 20 -4 20
-10z m-4514 -187 c-10 -10 -19 5 -10 18 6 11 8 11 12 0 2 -7 1 -15 -2 -18z
m6061 -205 c-3 -7 -5 -2 -5 12 0 14 2 19 5 13 2 -7 2 -19 0 -25z m141 -59 c-3
-8 -7 -3 -11 10 -4 17 -3 21 5 13 5 -5 8 -16 6 -23z m437 -74 c-21 -17 -37
-15 -43 3 -2 8 8 12 30 12 31 -1 32 -1 13 -15z m-7405 -130 c-7 -8 -20 -15
-29 -15 -11 1 -8 5 9 15 32 18 35 18 20 0z m333 -5 c9 -11 17 -24 17 -28 0 -9
114 -238 128 -255 5 -7 24 -39 41 -72 26 -47 28 -54 10 -32 -13 16 -41 46 -61
67 -21 21 -38 45 -38 52 0 8 -11 25 -25 38 -14 13 -25 31 -25 39 0 9 -9 31
-20 49 -11 18 -20 39 -20 47 0 8 -3 15 -8 15 -7 0 -32 69 -32 90 0 16 14 12
33 -10z m-99 -43 c13 -30 30 -73 37 -96 7 -23 21 -48 32 -56 12 -8 15 -15 8
-20 -6 -3 -11 -11 -11 -16 0 -6 5 -7 10 -4 6 3 10 1 10 -4 0 -14 -47 -14 -55
0 -4 5 -12 8 -18 6 -7 -2 -29 4 -49 14 -21 11 -48 19 -62 19 -13 0 -31 6 -38
13 -7 7 -31 14 -53 16 -47 4 -118 37 -113 53 3 7 13 16 24 22 10 6 21 13 24
16 12 12 81 39 114 46 20 3 41 15 47 25 6 12 21 19 39 19 26 0 32 -7 54 -53z
m-294 -7 c12 -8 12 -10 -3 -16 -9 -3 -17 -13 -17 -21 0 -8 -5 -11 -11 -7 -7 4
-7 10 -1 16 6 6 8 17 5 24 -6 16 5 18 27 4z m-117 -70 c-23 -9 -32 -30 -13
-30 6 0 10 -4 10 -10 0 -17 -27 -11 -34 7 -8 19 17 43 43 42 10 0 7 -4 -6 -9z
m5502 -50 c9 -27 21 -52 26 -55 5 -4 9 -19 9 -36 0 -16 4 -37 10 -47 18 -32
50 -111 50 -122 0 -7 9 -19 20 -28 18 -15 47 -123 54 -200 2 -13 9 -27 16 -32
7 -5 15 -33 18 -64 2 -31 8 -56 12 -56 4 0 15 -36 24 -80 10 -44 22 -80 27
-80 5 0 9 -9 9 -20 0 -11 4 -28 9 -38 14 -28 29 -84 36 -134 4 -27 11 -48 16
-48 5 0 9 -5 9 -11 0 -21 -45 -4 -48 19 -2 12 -7 22 -11 22 -9 0 -44 80 -60
138 -7 23 -16 42 -21 42 -6 0 -10 6 -10 13 0 7 -9 30 -20 51 -10 22 -17 42
-15 46 3 4 -2 13 -10 20 -8 7 -15 21 -15 31 0 11 -5 19 -11 19 -5 0 -7 5 -4
10 4 6 -2 28 -14 49 -11 22 -17 42 -14 45 3 3 1 11 -5 18 -6 7 -10 16 -10 21
0 4 -3 24 -8 45 -4 20 -6 44 -5 53 1 9 -5 19 -14 22 -8 4 -15 14 -15 22 0 9 5
13 10 10 16 -10 11 7 -6 19 -10 8 -16 28 -16 59 -1 30 -6 48 -16 52 -8 3 -12
12 -8 22 4 9 1 20 -6 25 -10 6 -10 10 -2 16 13 8 -11 82 -27 82 -5 0 -9 15 -8
33 l1 32 10 -32 c18 -56 37 -34 22 25 -4 12 -12 22 -19 22 -7 0 -18 7 -25 15
-10 13 -9 15 8 15 16 0 20 4 15 17 -4 10 -2 14 5 10 6 -4 18 -30 27 -57z
m-5558 4 c-3 -3 -12 -4 -19 -1 -8 3 -5 6 6 6 11 1 17 -2 13 -5z m-7 -55 c0 -3
-12 -4 -27 -1 -27 4 -27 4 -8 -12 11 -8 16 -16 10 -16 -23 -3 33 -19 67 -19
20 -1 38 -4 40 -8 2 -5 21 -20 43 -36 78 -54 81 -57 66 -66 -19 -12 -5 -31 24
-31 13 0 25 -3 27 -7 6 -15 126 -93 142 -93 8 0 30 -13 48 -28 51 -44 122 -88
152 -96 15 -4 24 -11 21 -16 -3 -5 9 -16 27 -23 18 -8 44 -26 57 -41 l25 -26
-21 -21 c-19 -19 -32 -21 -123 -20 -56 1 -125 7 -153 13 -57 11 -136 25 -209
34 -27 4 -48 10 -48 15 0 5 -24 9 -52 9 -29 1 -82 7 -118 15 -35 7 -68 11 -72
9 -4 -3 -17 0 -28 6 -11 6 -49 11 -85 12 -36 0 -65 5 -65 9 0 5 -15 0 -33 -10
-17 -10 -40 -17 -50 -15 -9 1 -17 -2 -17 -7 0 -6 -4 -8 -9 -4 -5 3 -17 -2 -25
-11 -9 -8 -16 -12 -16 -8 0 4 -3 4 -7 1 -10 -11 58 -71 97 -86 19 -8 39 -18
45 -23 5 -4 15 -8 23 -8 8 0 27 -9 42 -20 16 -11 42 -23 59 -26 17 -4 28 -10
25 -15 -3 -5 2 -9 11 -9 8 0 23 -4 33 -9 9 -5 35 -17 57 -26 22 -9 56 -25 76
-36 20 -10 42 -19 49 -19 11 0 116 -46 160 -69 9 -5 31 -12 50 -16 19 -4 49
-15 65 -25 17 -10 47 -21 67 -24 20 -4 38 -10 40 -15 2 -4 40 -20 85 -35 45
-15 87 -34 93 -42 7 -8 22 -14 34 -14 30 0 69 -29 62 -46 -4 -9 2 -14 17 -14
18 0 19 2 7 10 -13 8 -12 10 3 10 9 0 17 -7 17 -15 0 -8 -9 -15 -19 -15 -10 0
-21 -6 -24 -13 -3 -8 -38 -19 -78 -27 -41 -7 -78 -16 -84 -20 -11 -8 -256 -5
-368 4 -38 3 -77 11 -89 17 -11 6 -30 8 -42 5 -13 -3 -39 3 -61 14 -22 11 -54
20 -71 20 -18 0 -45 5 -61 11 -66 26 -185 50 -273 55 -52 3 -105 11 -118 17
-19 9 -25 8 -33 -3 -8 -13 -10 -13 -18 -1 -8 12 -12 12 -26 -2 -9 -10 -21 -17
-27 -17 -7 0 -1 -11 11 -24 17 -18 19 -25 9 -29 -8 -4 -9 -8 -3 -14 17 -14 45
-70 45 -91 0 -11 11 -29 25 -40 14 -11 25 -25 25 -31 0 -6 5 -11 11 -11 5 0
17 -16 25 -35 8 -19 19 -35 25 -35 5 0 21 -12 35 -27 19 -20 21 -28 12 -35
-12 -7 -11 -9 12 -12 5 0 21 -12 34 -26 36 -38 70 -65 79 -62 4 1 7 -7 7 -18
0 -11 6 -20 13 -20 23 0 55 -43 62 -82 6 -34 25 -54 25 -28 0 20 18 9 24 -14
3 -13 15 -26 27 -29 11 -3 23 -15 26 -26 4 -17 8 -19 19 -10 18 15 34 3 34
-26 0 -17 6 -25 23 -27 14 -2 22 -10 22 -23 0 -12 15 -29 38 -44 33 -22 37
-29 37 -68 0 -24 5 -43 10 -43 6 0 10 -9 10 -20 0 -11 7 -23 15 -26 8 -4 15
-12 15 -20 0 -19 46 -18 54 1 7 19 26 20 26 1 0 -8 4 -16 10 -18 6 -2 6 -14 1
-33 l-9 -30 -1 33 c-1 35 -4 37 -50 21 -35 -12 -42 -29 -12 -29 11 0 22 -4 25
-9 8 -12 -48 -31 -88 -31 -27 0 -34 6 -49 40 -20 47 -33 50 -49 13 l-12 -28
-4 38 c-2 28 -8 37 -22 37 -10 0 -20 7 -24 15 -7 19 -36 19 -36 0 0 -8 7 -15
15 -15 8 0 15 -4 15 -10 0 -13 -27 -13 -32 0 -1 5 -20 16 -40 25 -34 14 -38
14 -38 0 0 -11 -11 -15 -42 -14 l-43 1 33 9 c36 11 41 25 12 34 -11 4 -18 10
-15 15 3 5 0 12 -6 16 -6 3 -15 0 -20 -7 -4 -7 -9 -11 -11 -9 -2 3 -8 14 -14
25 -6 11 -20 24 -32 30 -12 5 -22 15 -22 22 0 6 -9 15 -20 18 -15 5 -19 12
-15 26 4 12 1 21 -9 25 -9 3 -16 12 -16 19 0 8 -10 15 -22 17 -13 2 -29 15
-36 31 -7 15 -19 27 -26 27 -8 0 -17 8 -20 18 -14 36 -31 62 -41 62 -13 0 -45
36 -39 43 3 3 -3 4 -13 3 -9 0 -18 4 -18 9 -2 30 -19 56 -40 61 -13 3 -36 22
-51 42 -46 62 -75 86 -85 70 -12 -19 -11 -148 1 -148 6 0 10 -18 10 -40 0 -33
3 -40 20 -40 11 0 20 -4 20 -10 0 -5 -7 -10 -15 -10 -8 0 -15 -9 -15 -20 0
-11 5 -20 11 -20 21 0 39 -29 39 -64 0 -20 -3 -36 -6 -36 -12 0 -49 24 -57 36
-17 29 -37 15 -37 -26 l0 -40 -40 0 -40 0 0 -53 c0 -46 -3 -56 -22 -65 -13 -6
-17 -11 -10 -11 7 -1 12 -16 12 -41 0 -22 5 -40 10 -40 6 0 10 -7 10 -15 0 -8
5 -15 10 -15 6 0 10 -13 10 -30 0 -16 -4 -30 -10 -30 -22 0 -8 -28 17 -35 27
-6 27 -7 9 -21 -19 -13 -19 -15 -2 -27 16 -12 16 -14 2 -26 -9 -7 -12 -18 -8
-25 9 -14 31 -189 24 -196 -3 -3 -7 1 -9 8 -3 6 -11 12 -19 12 -10 0 -14 12
-14 40 0 29 -4 40 -15 40 -17 0 -20 -16 -5 -25 12 -7 14 -55 2 -55 -4 0 -13 9
-20 21 -9 13 -19 18 -32 14 -15 -5 -21 0 -26 22 -12 48 -42 108 -64 128 -11
10 -20 26 -20 37 0 10 -4 18 -9 18 -5 0 -12 18 -16 40 -4 22 -16 51 -27 65
-12 16 -21 43 -22 65 0 21 -5 38 -10 37 -6 -1 -15 18 -22 43 -6 25 -21 66 -33
92 -11 26 -21 53 -21 60 0 13 -44 153 -61 193 -4 11 -13 39 -19 61 -11 46 -34
73 -43 52 -2 -7 0 -60 5 -118 7 -78 7 -117 -2 -150 -11 -40 -13 -43 -23 -24
-7 11 -20 18 -30 16 -9 -2 -15 -8 -12 -13 4 -5 1 -9 -4 -9 -6 0 -17 -15 -24
-32 -16 -40 -21 -138 -7 -138 5 0 10 -11 10 -25 0 -14 -6 -25 -12 -25 -7 0 0
-9 16 -19 28 -19 28 -19 6 -26 -16 -5 -19 -10 -11 -18 16 -16 14 -37 -3 -31
-8 3 -17 17 -21 32 -11 49 -38 112 -46 112 -13 0 -11 -87 2 -111 12 -23 20
-209 8 -209 -4 0 -10 -8 -12 -18 -4 -13 -5 -12 -6 5 0 12 -6 25 -11 28 -6 4
-17 23 -26 43 -128 294 -165 462 -129 587 63 224 112 315 252 474 94 106 172
183 278 273 39 33 88 76 111 96 22 21 55 48 73 62 18 14 43 34 54 46 12 11 69
59 127 105 58 46 146 117 195 159 108 91 166 136 223 174 24 16 46 35 50 41 6
10 17 16 50 27 4 1 19 15 34 30 15 15 30 28 33 28 4 0 21 16 39 35 19 19 40
35 49 35 9 0 19 4 22 10 4 6 -1 7 -12 4 -10 -4 0 10 22 30 36 34 41 35 52 20
7 -10 13 -21 13 -25z m5162 -89 c21 -63 33 -91 57 -140 10 -19 21 -48 25 -65
4 -16 13 -43 21 -60 16 -37 27 -69 25 -74 -1 -2 3 -7 8 -10 5 -3 17 -28 25
-56 24 -74 48 -139 56 -150 5 -5 11 -24 14 -41 3 -17 18 -58 33 -90 15 -32 29
-63 30 -69 5 -21 27 -81 42 -115 9 -19 17 -46 19 -60 3 -14 11 -32 19 -41 8
-8 14 -24 14 -35 0 -11 12 -45 26 -75 66 -141 86 -193 86 -221 -1 -10 3 -18 7
-18 14 0 40 -63 43 -103 1 -20 7 -37 13 -37 5 0 21 -24 34 -53 13 -28 30 -64
37 -79 10 -18 11 -27 3 -30 -6 -2 -2 -15 11 -31 12 -15 26 -25 31 -22 5 4 6
-1 3 -9 -3 -9 -1 -16 5 -16 6 0 11 -8 11 -19 0 -10 7 -24 15 -31 8 -7 15 -21
15 -32 0 -17 -5 -19 -25 -14 -18 5 -27 2 -31 -9 -8 -21 -23 -9 -40 31 -8 19
-19 34 -24 34 -6 0 -10 6 -10 13 0 8 -9 22 -20 32 -16 14 -17 21 -8 32 8 10 8
17 1 21 -5 4 -16 17 -22 30 -7 13 -20 32 -29 42 -16 20 -21 37 -24 83 -1 25
-18 41 -18 16 0 -5 -4 -8 -9 -5 -5 3 -7 15 -4 25 3 10 -2 30 -11 43 -9 14 -14
27 -11 30 3 2 -4 13 -15 23 -11 10 -20 26 -20 35 0 9 -5 21 -11 27 -6 6 -12
19 -14 29 -2 11 -4 19 -5 19 -1 0 -3 9 -5 20 -2 11 -10 24 -17 30 -16 12 -48
97 -55 145 -3 19 -16 50 -29 69 -13 19 -31 58 -40 88 -9 29 -21 53 -25 53 -5
0 -9 9 -9 20 0 11 -4 20 -10 20 -5 0 -9 12 -9 28 1 15 -4 43 -9 62 -6 19 -16
55 -23 80 -7 25 -15 47 -19 50 -4 3 -12 28 -19 55 -7 28 -22 69 -32 92 -10 23
-20 57 -22 75 -6 52 -19 98 -27 98 -7 0 -14 33 -24 110 -1 14 -5 32 -8 40 -22
65 -26 83 -21 96 3 8 1 20 -4 27 -6 6 -13 20 -16 30 -5 14 -3 18 10 15 10 -2
24 -24 35 -58z m1565 -312 c-3 -8 -6 -5 -6 6 -1 11 2 17 5 13 3 -3 4 -12 1
-19z m-807 -633 c0 -8 -7 -15 -15 -15 -9 0 -12 6 -9 15 4 8 10 15 15 15 5 0 9
-7 9 -15z m40 -90 c0 -8 -2 -15 -4 -15 -2 0 -6 7 -10 15 -3 8 -1 15 4 15 6 0
10 -7 10 -15z m-2470 -667 c10 -6 -3 -8 -40 -5 -70 6 -183 -15 -283 -52 -84
-32 -209 -100 -248 -135 -13 -11 -41 -30 -63 -41 -21 -11 -53 -33 -70 -50 -17
-16 -65 -57 -105 -90 -75 -61 -158 -150 -204 -220 -23 -33 -27 -36 -27 -17 0
12 9 31 19 41 11 11 17 22 13 25 -3 3 0 6 6 6 7 0 12 6 12 14 0 50 334 338
495 427 97 53 214 94 310 108 66 10 161 5 185 -11z m-4210 -11 c0 -8 -9 -22
-20 -32 -19 -17 -20 -17 -30 9 -14 37 -14 36 20 36 18 0 30 -5 30 -13z m880
-89 c0 -12 7 -29 16 -39 9 -10 14 -25 11 -34 -8 -19 -27 -20 -27 0 0 8 -7 15
-15 15 -11 0 -15 11 -15 40 0 29 4 40 15 40 9 0 15 -9 15 -22z m5740 -23 c6
-8 9 -19 5 -25 -3 -5 -1 -10 4 -10 6 0 11 -4 11 -8 0 -5 -13 -7 -29 -4 -40 6
-55 62 -17 62 8 0 19 -7 26 -15z m31 -88 c-16 -16 -13 -27 7 -28 11 0 12 -2 4
-6 -13 -5 -52 23 -52 38 0 9 32 17 43 11 5 -2 4 -9 -2 -15z m-5631 -16 c12
-23 2 -90 -11 -69 -5 7 -9 23 -9 35 0 12 -5 23 -12 25 -13 5 -2 28 12 28 5 0
14 -9 20 -19z m54 -7 c11 -4 16 -19 16 -45 0 -28 4 -39 15 -39 8 0 15 -4 15
-10 0 -5 -7 -10 -15 -10 -8 0 -15 5 -15 10 0 6 -7 10 -15 10 -11 0 -15 11 -15
39 0 22 -5 42 -12 44 -9 4 -9 6 -1 6 6 1 18 -2 27 -5z m-1194 -14 c0 -5 -4
-10 -10 -10 -5 0 -10 5 -10 10 0 6 5 10 10 10 6 0 10 -4 10 -10z m730 0 c0 -5
-2 -10 -4 -10 -3 0 -8 5 -11 10 -3 6 -1 10 4 10 6 0 11 -4 11 -10z m2920 -54
c0 -2 -8 -10 -17 -17 -16 -13 -17 -12 -4 4 13 16 21 21 21 13z m-4210 -26 c0
-5 -4 -10 -10 -10 -5 0 -10 5 -10 10 0 6 5 10 10 10 6 0 10 -4 10 -10z m1400
0 c0 -5 -7 -7 -15 -4 -8 4 -15 8 -15 10 0 2 7 4 15 4 8 0 15 -4 15 -10z
m-1380 -60 c0 -5 -4 -10 -10 -10 -5 0 -10 5 -10 10 0 6 5 10 10 10 6 0 10 -4
10 -10z m-76 -155 c3 -8 1 -15 -4 -15 -6 0 -10 7 -10 15 0 8 2 15 4 15 2 0 6
-7 10 -15z m4511 -165 c3 -5 1 -10 -4 -10 -6 0 -11 5 -11 10 0 6 2 10 4 10 3
0 8 -4 11 -10z m3233 -104 c-3 -19 -4 -19 -21 -2 -13 14 -15 21 -6 32 6 7 8
28 5 46 -4 24 -1 21 10 -12 8 -25 13 -54 12 -64z m-3268 27 c0 -26 -3 -34 -11
-26 -9 9 -3 63 7 63 2 0 4 -17 4 -37z m-74 -210 c-6 -6 -36 9 -36 18 0 5 9 4
20 -3 10 -7 18 -14 16 -15z m-10 -23 c29 0 41 -18 18 -27 -16 -6 -16 -7 1 -20
27 -19 15 -24 -20 -8 -17 7 -38 16 -48 19 -10 3 -15 11 -12 16 5 8 14 6 29 -3
19 -13 25 -13 41 -1 18 13 17 14 -7 14 -14 0 -32 8 -39 18 -11 14 -11 15 1 5
8 -7 24 -13 36 -13z m-6 -71 c0 -5 8 -9 17 -9 9 0 14 -3 10 -6 -7 -7 -77 17
-77 27 0 3 11 4 25 1 14 -2 25 -8 25 -13z m2070 17 c0 -2 -11 -6 -25 -8 -14
-3 -25 -1 -25 3 0 5 11 9 25 9 14 0 25 -2 25 -4z m-6870 -34 c0 -9 11 -39 25
-66 16 -31 22 -53 16 -59 -6 -6 -4 -15 5 -24 8 -8 14 -24 14 -37 0 -12 4 -26
9 -31 11 -12 43 -136 37 -142 -6 -6 -51 56 -74 102 -37 76 -80 245 -62 245 6
0 10 9 10 21 0 11 5 17 10 14 6 -3 10 -14 10 -23z m7674 3 c-1 -11 -4 -32 -9
-47 -7 -27 -6 -27 32 -21 21 3 67 12 103 20 119 26 303 25 233 -1 -15 -6 -15
-8 -3 -16 12 -7 11 -10 -5 -15 -11 -3 -33 -13 -49 -21 -16 -8 -85 -26 -153
-40 -171 -35 -183 -36 -183 -17 0 10 -6 13 -16 9 -23 -9 -211 -56 -222 -56
-15 0 4 72 22 86 8 6 48 16 88 23 122 20 128 22 128 37 0 15 -8 14 -90 -7 -19
-5 -45 -9 -57 -9 -20 0 -21 3 -12 29 12 33 36 47 104 60 71 13 90 10 89 -14z
m-2859 -125 c3 -5 13 -7 23 -4 14 5 14 4 3 -4 -10 -7 -21 -7 -35 0 -29 15 -32
18 -13 18 9 0 18 -4 22 -10z m410 0 c-3 -5 -14 -10 -23 -9 -14 0 -13 2 3 9 27
11 27 11 20 0z m-45 -20 c0 -5 -5 -10 -11 -10 -5 0 -7 5 -4 10 3 6 8 10 11 10
2 0 4 -4 4 -10z m-1725 -70 c3 -5 2 -10 -4 -10 -5 0 -13 5 -16 10 -3 6 -2 10
4 10 5 0 13 -4 16 -10z m-26 -14 c10 -12 8 -16 -11 -22 -13 -4 -26 -7 -30 -6
-5 1 -8 -3 -8 -10 0 -6 -3 -9 -6 -5 -6 6 27 56 37 57 4 0 12 -6 18 -14z m-14
-51 c-16 -14 -39 -25 -50 -25 -13 1 -5 9 25 24 58 30 61 30 25 1z m-168 -11
c-3 -3 -12 -4 -19 -1 -8 3 -5 6 6 6 11 1 17 -2 13 -5z m16 -21 c-7 -2 -19 -2
-25 0 -7 3 -2 5 12 5 14 0 19 -2 13 -5z"/>
<path d="M3014 9031 c-17 -4 -36 -11 -42 -15 -15 -9 -16 -56 -2 -56 6 0 10 7
10 15 0 10 10 15 29 15 16 0 31 6 34 13 3 9 7 9 20 -1 9 -8 21 -10 28 -6 8 5
4 13 -12 25 -13 10 -26 18 -29 18 -3 -1 -19 -4 -36 -8z"/>
<path d="M3600 8992 c0 -15 24 -32 47 -32 30 0 29 14 -2 28 -30 14 -45 15 -45
4z"/>
<path d="M3531 8971 c-10 -17 -6 -19 29 -23 22 -2 40 -2 40 -1 0 8 -41 43 -50
43 -5 0 -14 -9 -19 -19z"/>
<path d="M2860 8943 c0 -9 -7 -25 -17 -35 -9 -10 -13 -21 -9 -25 4 -5 13 1 19
12 18 30 26 65 16 65 -5 0 -9 -8 -9 -17z"/>
<path d="M4071 8834 c0 -11 3 -14 6 -6 3 7 2 16 -1 19 -3 4 -6 -2 -5 -13z"/>
<path d="M4016 8814 c-5 -14 -4 -15 9 -4 17 14 19 20 6 20 -5 0 -12 -7 -15
-16z"/>
<path d="M4085 8800 c-3 -4 2 -11 11 -14 22 -8 34 -7 34 3 0 12 -39 21 -45 11z"/>
<path d="M3795 8755 l-40 -13 43 -1 c31 -1 42 3 42 14 0 8 -1 15 -2 14 -2 0
-21 -6 -43 -14z"/>
<path d="M4368 8723 c6 -2 18 -2 25 0 6 3 1 5 -13 5 -14 0 -19 -2 -12 -5z"/>
<path d="M3659 8663 c-1 -5 -1 -10 -1 -13 0 -3 -11 -7 -25 -8 -43 -3 -39 -12
5 -12 35 0 42 3 42 20 0 18 -19 29 -21 13z"/>
<path d="M4500 8625 c0 -8 7 -15 15 -15 8 0 15 7 15 15 0 8 -7 15 -15 15 -8 0
-15 -7 -15 -15z"/>
<path d="M3296 8545 c-17 -13 -18 -15 -3 -15 9 0 19 -11 23 -24 8 -31 27 -39
59 -22 28 15 23 26 -12 26 -16 0 -27 8 -33 25 -11 29 -9 29 -34 10z"/>
<path d="M3840 8539 c0 -11 4 -18 10 -14 5 3 7 12 3 20 -7 21 -13 19 -13 -6z"/>
<path d="M3885 8530 c4 -6 11 -8 16 -5 14 9 11 15 -7 15 -8 0 -12 -5 -9 -10z"/>
<path d="M4425 8489 c-10 -15 1 -23 20 -15 9 3 13 10 10 16 -8 13 -22 13 -30
-1z"/>
<path d="M4312 8460 c0 -14 2 -19 5 -12 2 6 2 18 0 25 -3 6 -5 1 -5 -13z"/>
<path d="M3269 8169 c-10 -6 -7 -9 14 -9 29 0 35 5 14 13 -8 3 -20 1 -28 -4z"/>
<path d="M3200 8130 c0 -5 11 -10 25 -10 14 0 25 5 25 10 0 6 -11 10 -25 10
-14 0 -25 -4 -25 -10z"/>
<path d="M2982 7948 c6 -18 28 -21 28 -4 0 9 -7 16 -16 16 -9 0 -14 -5 -12
-12z"/>
<path d="M4240 7315 c0 -16 16 -20 24 -6 3 5 -1 11 -9 15 -9 3 -15 0 -15 -9z"/>
<path d="M5558 6980 c-13 -11 -18 -19 -12 -20 7 0 14 -9 17 -21 3 -12 10 -19
15 -16 9 7 24 -9 62 -66 14 -20 28 -37 33 -37 4 0 7 -5 7 -11 0 -6 18 -35 39
-65 39 -54 39 -54 46 -27 4 17 2 29 -4 31 -6 2 -11 8 -11 13 0 5 -9 18 -20 29
-11 11 -20 29 -20 41 0 12 -13 34 -30 49 -17 16 -30 38 -30 52 0 31 -10 45
-42 57 -22 8 -31 6 -50 -9z"/>
<path d="M6311 6944 c0 -11 3 -14 6 -6 3 7 2 16 -1 19 -3 4 -6 -2 -5 -13z"/>
<path d="M2800 6826 c0 -26 5 -36 20 -41 11 -3 20 -14 20 -24 0 -10 3 -21 7
-25 4 -4 8 -15 8 -24 1 -9 2 -27 3 -39 3 -33 82 -77 82 -45 0 4 -14 22 -30 39
-17 18 -30 39 -28 45 3 18 -24 88 -34 88 -4 0 -8 5 -8 10 0 6 -9 19 -20 30
l-20 20 0 -34z"/>
<path d="M4365 6759 c-9 -14 -2 -20 14 -10 8 6 9 11 3 15 -6 3 -14 1 -17 -5z"/>
<path d="M4304 6665 c-12 -33 2 -94 15 -65 3 8 15 17 26 18 26 5 26 4 19 40
-8 39 -21 41 -31 5 l-7 -28 -6 30 -6 30 -10 -30z"/>
<path d="M6153 6633 c9 -2 23 -2 30 0 6 3 -1 5 -18 5 -16 0 -22 -2 -12 -5z"/>
<path d="M2930 6535 c0 -14 5 -25 10 -25 6 0 10 11 10 25 0 14 -4 25 -10 25
-5 0 -10 -11 -10 -25z"/>
<path d="M2831 6484 c0 -11 3 -14 6 -6 3 7 2 16 -1 19 -3 4 -6 -2 -5 -13z"/>
<path d="M6160 6475 c0 -9 5 -15 11 -13 6 2 11 8 11 13 0 5 -5 11 -11 13 -6 2
-11 -4 -11 -13z"/>
<path d="M3050 6469 c0 -8 32 -29 44 -29 3 0 6 8 6 18 0 11 -8 17 -25 18 -14
1 -25 -2 -25 -7z"/>
<path d="M2850 6415 c0 -8 5 -15 10 -15 6 0 10 7 10 15 0 8 -4 15 -10 15 -5 0
-10 -7 -10 -15z"/>
<path d="M6080 6410 c0 -5 5 -10 11 -10 5 0 7 5 4 10 -3 6 -8 10 -11 10 -2 0
-4 -4 -4 -10z"/>
<path d="M6145 6360 c-3 -5 -1 -10 4 -10 6 0 11 5 11 10 0 6 -2 10 -4 10 -3 0
-8 -4 -11 -10z"/>
<path d="M5848 6353 c7 -3 16 -2 19 1 4 3 -2 6 -13 5 -11 0 -14 -3 -6 -6z"/>
<path d="M6525 6347 c-4 -10 -5 -21 -1 -24 10 -10 18 4 13 24 -4 17 -4 17 -12
0z"/>
<path d="M3055 6329 c-4 -6 -4 -27 0 -47 6 -31 9 -34 15 -17 19 45 6 98 -15
64z"/>
<path d="M3107 6298 c-7 -24 -1 -38 14 -38 17 0 21 29 6 44 -13 14 -15 13 -20
-6z"/>
<path d="M3463 6268 c-11 -15 -11 -38 -1 -37 23 3 48 12 48 18 0 9 -22 31 -31
31 -4 0 -11 -6 -16 -12z"/>
<path d="M3160 6236 c0 -9 5 -16 10 -16 6 0 10 4 10 9 0 6 -4 13 -10 16 -5 3
-10 -1 -10 -9z"/>
<path d="M6471 6234 c0 -11 3 -14 6 -6 3 7 2 16 -1 19 -3 4 -6 -2 -5 -13z"/>
<path d="M2960 6190 c0 -5 5 -10 10 -10 6 0 10 5 10 10 0 6 -4 10 -10 10 -5 0
-10 -4 -10 -10z"/>
<path d="M6472 6125 c0 -16 2 -22 5 -12 2 9 2 23 0 30 -3 6 -5 -1 -5 -18z"/>
<path d="M6066 6101 c-4 -7 -5 -15 -2 -18 9 -9 19 4 14 18 -4 11 -6 11 -12 0z"/>
<path d="M6450 6045 c0 -18 4 -23 15 -19 8 4 15 15 15 25 0 10 -7 19 -15 19
-9 0 -15 -9 -15 -25z"/>
<path d="M3236 5984 c-3 -9 -6 -27 -6 -40 0 -14 -4 -22 -10 -19 -5 3 -10 0
-10 -8 0 -16 33 -57 46 -57 4 0 3 5 -4 12 -18 18 -14 31 8 25 15 -4 20 0 20
17 0 12 -7 32 -16 44 -8 12 -12 27 -9 32 3 6 2 10 -3 10 -6 0 -13 -7 -16 -16z"/>
<path d="M6590 5960 c0 -22 5 -40 10 -40 6 0 10 18 10 40 0 22 -4 40 -10 40
-5 0 -10 -18 -10 -40z"/>
<path d="M4385 5981 c-3 -5 -1 -12 5 -16 5 -3 10 1 10 9 0 18 -6 21 -15 7z"/>
<path d="M6387 5885 c-4 -8 -2 -17 3 -20 6 -4 10 3 10 14 0 25 -6 27 -13 6z"/>
<path d="M3400 5807 c0 -8 -9 -22 -20 -32 -13 -12 -17 -22 -11 -28 12 -12 45
-1 36 12 -3 6 2 14 11 19 10 6 15 16 11 26 -8 19 -27 21 -27 3z"/>
<path d="M4030 5350 c0 -5 5 -10 10 -10 6 0 10 5 10 10 0 6 -4 10 -10 10 -5 0
-10 -4 -10 -10z"/>
<path d="M4515 5110 c3 -5 8 -10 11 -10 2 0 4 5 4 10 0 6 -5 10 -11 10 -5 0
-7 -4 -4 -10z"/>
<path d="M5645 4890 c-3 -5 1 -13 10 -16 22 -9 29 1 11 15 -10 8 -16 9 -21 1z"/>
<path d="M4871 4654 c0 -11 3 -14 6 -6 3 7 2 16 -1 19 -3 4 -6 -2 -5 -13z"/>
<path d="M5320 4660 c0 -5 6 -10 14 -10 8 0 18 5 21 10 3 6 -3 10 -14 10 -12
0 -21 -4 -21 -10z"/>
<path d="M4855 4570 c-4 -6 5 -10 19 -10 14 0 26 5 26 10 0 6 -9 10 -19 10
-11 0 -23 -4 -26 -10z"/>
<path d="M4974 4556 c-8 -22 3 -33 18 -18 9 9 9 15 0 24 -9 9 -13 7 -18 -6z"/>
<path d="M2430 7375 c-10 -12 -6 -21 21 -47 33 -33 34 -33 37 -10 5 31 -3 49
-26 61 -15 8 -23 7 -32 -4z"/>
<path d="M2477 7204 c-13 -13 14 -43 44 -49 41 -9 47 0 19 30 -23 24 -50 32
-63 19z"/>
<path d="M7040 7410 c0 -5 4 -10 9 -10 6 0 13 5 16 10 3 6 -1 10 -9 10 -9 0
-16 -4 -16 -10z"/>
<path d="M6808 7353 c7 -3 16 -2 19 1 4 3 -2 6 -13 5 -11 0 -14 -3 -6 -6z"/>
<path d="M7600 6890 c0 -5 5 -10 10 -10 6 0 10 5 10 10 0 6 -4 10 -10 10 -5 0
-10 -4 -10 -10z"/>
<path d="M9225 6330 c-3 -5 3 -10 15 -10 12 0 18 5 15 10 -3 6 -10 10 -15 10
-5 0 -12 -4 -15 -10z"/>
<path d="M8823 4993 c9 -2 23 -2 30 0 6 3 -1 5 -18 5 -16 0 -22 -2 -12 -5z"/>
<path d="M8895 4970 c3 -5 14 -10 23 -10 15 0 15 2 2 10 -20 13 -33 13 -25 0z"/>
<path d="M8071 4944 c0 -11 3 -14 6 -6 3 7 2 16 -1 19 -3 4 -6 -2 -5 -13z"/>
<path d="M8030 4816 c0 -9 5 -16 10 -16 6 0 10 4 10 9 0 6 -4 13 -10 16 -5 3
-10 -1 -10 -9z"/>
<path d="M7770 4680 c-13 -8 -13 -10 2 -10 9 0 20 5 23 10 8 13 -5 13 -25 0z"/>
<path d="M2476 3397 c3 -10 9 -15 12 -12 3 3 0 11 -7 18 -10 9 -11 8 -5 -6z"/>
<path d="M1575 1830 c3 -5 10 -10 16 -10 5 0 9 5 9 10 0 6 -7 10 -16 10 -8 0
-12 -4 -9 -10z"/>
<path d="M1457 1802 c-25 -28 -21 -42 14 -42 27 0 30 3 24 23 -11 34 -20 39
-38 19z"/>
<path d="M2380 1661 c0 -11 5 -23 10 -26 6 -4 10 5 10 19 0 14 -4 26 -10 26
-5 0 -10 -9 -10 -19z"/>
<path d="M1421 1264 c0 -11 3 -14 6 -6 3 7 2 16 -1 19 -3 4 -6 -2 -5 -13z"/>
<path d="M1442 1255 c0 -16 2 -22 5 -12 2 9 2 23 0 30 -3 6 -5 -1 -5 -18z"/>
<path d="M3845 410 c-3 -6 1 -7 9 -4 18 7 21 14 7 14 -6 0 -13 -4 -16 -10z"/>
<path d="M7980 9630 c0 -5 5 -10 10 -10 6 0 10 5 10 10 0 6 -4 10 -10 10 -5 0
-10 -4 -10 -10z"/>
<path d="M2100 9570 c0 -5 5 -10 10 -10 6 0 10 5 10 10 0 6 -4 10 -10 10 -5 0
-10 -4 -10 -10z"/>
<path d="M7370 8250 c-13 -8 -12 -10 3 -10 9 0 17 5 17 10 0 12 -1 12 -20 0z"/>
<path d="M8830 8190 c0 -5 5 -10 10 -10 6 0 10 5 10 10 0 6 -4 10 -10 10 -5 0
-10 -4 -10 -10z"/>
<path d="M10218 7303 c7 -3 16 -2 19 1 4 3 -2 6 -13 5 -11 0 -14 -3 -6 -6z"/>
<path d="M10158 7293 c6 -2 18 -2 25 0 6 3 1 5 -13 5 -14 0 -19 -2 -12 -5z"/>
<path d="M10220 7160 c0 -5 5 -10 10 -10 6 0 10 5 10 10 0 6 -4 10 -10 10 -5
0 -10 -4 -10 -10z"/>
<path d="M9760 7130 c0 -5 5 -10 11 -10 5 0 7 5 4 10 -3 6 -8 10 -11 10 -2 0
-4 -4 -4 -10z"/>
<path d="M9428 7063 c-3 -13 -2 -23 3 -23 5 0 9 -11 9 -25 0 -14 4 -25 9 -25
5 0 18 11 29 25 17 21 28 25 71 25 39 0 51 4 51 15 0 11 -12 15 -44 15 -26 0
-48 -6 -56 -15 -20 -24 -58 -19 -62 8 l-3 22 -7 -22z"/>
<path d="M9280 7000 c0 -5 18 -10 40 -10 22 0 40 5 40 10 0 6 -18 10 -40 10
-22 0 -40 -4 -40 -10z"/>
<path d="M9178 6993 c7 -3 16 -2 19 1 4 3 -2 6 -13 5 -11 0 -14 -3 -6 -6z"/>
<path d="M9265 6890 c-3 -5 -1 -10 4 -10 6 0 11 5 11 10 0 6 -2 10 -4 10 -3 0
-8 -4 -11 -10z"/>
<path d="M9898 6803 c7 -3 16 -2 19 1 4 3 -2 6 -13 5 -11 0 -14 -3 -6 -6z"/>
<path d="M9512 6665 c0 -16 2 -22 5 -12 2 9 2 23 0 30 -3 6 -5 -1 -5 -18z"/>
<path d="M9470 6600 c0 -22 5 -40 10 -40 6 0 10 18 10 40 0 22 -4 40 -10 40
-5 0 -10 -18 -10 -40z"/>
<path d="M9250 6595 c0 -8 7 -15 15 -15 8 0 15 7 15 15 0 8 -7 15 -15 15 -8 0
-15 -7 -15 -15z"/>
<path d="M9170 6570 c-12 -8 -11 -10 8 -10 12 0 22 5 22 10 0 13 -11 13 -30 0z"/>
<path d="M9550 6520 c0 -22 5 -40 10 -40 6 0 10 18 10 40 0 22 -4 40 -10 40
-5 0 -10 -18 -10 -40z"/>
<path d="M9760 6495 c0 -9 9 -15 24 -15 13 0 31 -3 40 -6 12 -4 16 0 16 15 0
18 -6 21 -40 21 -29 0 -40 -4 -40 -15z"/>
<path d="M9650 6470 c0 -16 47 -33 67 -25 16 6 14 9 -12 21 -37 16 -55 17 -55
4z"/>
<path d="M9988 6473 c7 -3 16 -2 19 1 4 3 -2 6 -13 5 -11 0 -14 -3 -6 -6z"/>
<path d="M9760 6440 c0 -5 5 -10 10 -10 6 0 10 5 10 10 0 6 -4 10 -10 10 -5 0
-10 -4 -10 -10z"/>
<path d="M9600 6410 c0 -17 6 -20 38 -19 20 1 51 4 67 8 l30 7 -25 7 c-14 3
-26 2 -28 -3 -6 -16 -49 -12 -56 5 -8 22 -26 18 -26 -5z"/>
<path d="M9723 6383 c9 -2 23 -2 30 0 6 3 -1 5 -18 5 -16 0 -22 -2 -12 -5z"/>
<path d="M9635 4830 c3 -5 8 -10 11 -10 2 0 4 5 4 10 0 6 -5 10 -11 10 -5 0
-7 -4 -4 -10z"/>
<path d="M9700 4806 c0 -2 9 -6 20 -9 11 -3 18 -1 14 4 -5 9 -34 13 -34 5z"/>
<path d="M3230 4365 c-10 -12 -10 -15 4 -15 9 0 16 7 16 15 0 8 -2 15 -4 15
-2 0 -9 -7 -16 -15z"/>
<path d="M3745 1133 c-174 -21 -375 -81 -375 -110 0 -8 -5 -11 -12 -7 -6 4
-17 -1 -25 -12 -8 -10 -17 -18 -21 -18 -4 1 -6 -3 -4 -8 2 -6 -4 -8 -11 -5
-19 7 -37 -11 -30 -29 3 -10 0 -12 -10 -8 -10 3 -19 -5 -28 -25 -8 -17 -17
-31 -21 -31 -8 0 -30 -72 -23 -78 2 -2 7 7 11 22 3 14 13 30 21 35 9 4 16 19
17 32 1 16 7 24 18 23 10 -1 20 6 23 16 4 12 12 16 25 13 26 -7 26 -23 0 -23
-11 0 -23 -7 -27 -16 -4 -12 -7 -13 -14 -3 -4 8 -11 11 -14 7 -4 -3 3 -16 16
-29 15 -15 20 -17 16 -6 -7 19 16 29 65 26 18 -1 56 8 83 21 83 37 283 101
336 107 l50 6 -3 51 c-3 54 -6 57 -63 49z m-195 -79 c0 -2 -9 0 -20 6 -11 6
-20 13 -20 16 0 2 9 0 20 -6 11 -6 20 -13 20 -16z m-50 6 c0 -5 -10 -10 -22
-10 -19 0 -20 2 -8 10 19 13 30 13 30 0z m-155 -90 c-3 -5 -12 -10 -18 -10 -7
0 -6 4 3 10 19 12 23 12 15 0z m50 -30 l-20 -9 20 -1 c19 -1 19 -1 1 -11 -14
-9 -20 -8 -27 2 -9 15 7 29 31 28 10 0 8 -3 -5 -9z"/>
<path d="M4716 1023 c-6 -14 -5 -15 5 -6 7 7 10 15 7 18 -3 3 -9 -2 -12 -12z"/>
<path d="M3830 949 c-11 -7 -3 -8 28 -4 51 8 104 -9 95 -31 -6 -16 13 -19 22
-4 4 6 -4 19 -17 30 -26 21 -102 27 -128 9z"/>
<path d="M3690 926 c0 -9 30 -14 35 -6 4 6 -3 10 -14 10 -12 0 -21 -2 -21 -4z"/>
<path d="M3292 854 c-36 -18 -49 -34 -30 -34 9 0 19 6 22 13 4 6 4 2 2 -10 -2
-14 0 -20 9 -17 10 4 29 56 22 60 -1 0 -13 -5 -25 -12z"/>
<path d="M3610 813 c-46 -3 -212 -21 -263 -28 -40 -5 -46 -15 -11 -16 l29 0
-25 -12 -25 -11 28 -4 c15 -2 25 -6 23 -10 -4 -7 26 -39 31 -34 2 1 20 2 41 2
35 -1 36 -1 17 -16 -16 -12 -38 -14 -110 -10 -49 3 -92 5 -95 6 -3 0 2 5 10
11 12 8 10 9 -7 4 -14 -4 -23 -2 -23 4 0 6 6 11 13 11 9 0 8 3 -2 9 -11 7 -11
9 0 13 8 3 10 9 6 14 -9 10 -28 -16 -21 -28 3 -4 0 -8 -6 -8 -6 0 -15 10 -20
23 -8 20 -9 21 -9 2 -3 -71 151 -94 372 -55 66 11 153 20 195 21 43 0 70 3 62
6 -8 4 -22 14 -31 25 -19 20 -40 23 -56 7 -13 -13 -33 -4 -33 15 0 21 43 52
74 54 16 1 32 4 34 7 5 5 -118 4 -198 -2z m75 -93 c3 -6 -1 -7 -9 -4 -18 7
-21 14 -7 14 6 0 13 -4 16 -10z m-172 -27 c-7 -2 -19 -2 -25 0 -7 3 -2 5 12 5
14 0 19 -2 13 -5z"/>
<path d="M3833 803 c9 -2 17 -9 17 -14 0 -6 5 -7 11 -3 14 8 -8 24 -31 23 -11
-1 -10 -3 3 -6z"/>
<path d="M3228 793 c6 -2 18 -2 25 0 6 3 1 5 -13 5 -14 0 -19 -2 -12 -5z"/>
<path d="M3882 768 c8 -7 20 -22 26 -33 8 -14 11 -15 11 -5 0 20 -23 50 -40
50 -9 0 -9 -3 3 -12z"/>
<path d="M3280 729 c0 -5 5 -7 10 -4 6 3 10 8 10 11 0 2 -4 4 -10 4 -5 0 -10
-5 -10 -11z"/>
<path d="M3347 695 c-5 -11 0 -15 16 -15 12 0 18 4 12 8 -5 4 -13 11 -16 15
-4 4 -9 1 -12 -8z"/>
<path d="M3288 693 c7 -3 16 -2 19 1 4 3 -2 6 -13 5 -11 0 -14 -3 -6 -6z"/>
<path d="M3922 680 c0 -14 2 -19 5 -12 2 6 2 18 0 25 -3 6 -5 1 -5 -13z"/>
<path d="M3408 683 c6 -2 18 -2 25 0 6 3 1 5 -13 5 -14 0 -19 -2 -12 -5z"/>
<path d="M3907 620 c3 -11 0 -20 -6 -20 -6 0 -11 -5 -11 -11 0 -8 5 -8 15 1
17 14 20 36 6 44 -5 4 -7 -3 -4 -14z"/>
<path d="M3960 500 c0 -5 5 -10 10 -10 6 0 10 5 10 10 0 6 -4 10 -10 10 -5 0
-10 -4 -10 -10z"/>
<path d="M3755 490 c-3 -5 1 -10 9 -10 9 0 16 5 16 10 0 6 -4 10 -9 10 -6 0
-13 -4 -16 -10z"/>
<path d="M6405 416 c-122 -26 -258 -58 -264 -62 -3 -3 14 -88 24 -121 3 -8 15
-7 47 4 24 8 107 32 186 53 79 21 145 40 147 42 2 2 7 27 11 56 6 50 6 52 -17
51 -13 0 -73 -11 -134 -23z"/>
<path d="M3000 351 c0 -11 5 -23 10 -26 6 -3 10 1 10 9 0 9 6 16 14 16 12 0
78 -24 141 -51 32 -13 107 -31 112 -26 2 3 -9 8 -26 12 -17 4 -77 24 -133 46
-118 45 -128 46 -128 20z"/>
<path d="M5905 310 c-90 -51 -247 -105 -355 -125 -47 -8 -168 -24 -270 -35
-195 -22 -244 -31 -325 -57 -54 -17 -155 -73 -155 -85 0 -5 284 -8 630 -8
l630 0 -5 23 c-6 27 -65 320 -65 324 0 8 -20 -1 -85 -37z"/>
<path d="M3008 294 c-11 -11 -10 -84 1 -84 6 0 12 3 14 8 8 12 -7 84 -15 76z"/>
<path d="M3398 243 c7 -3 16 -2 19 1 4 3 -2 6 -13 5 -11 0 -14 -3 -6 -6z"/>
<path d="M3725 225 c-29 -7 -40 -13 -25 -13 14 0 43 5 65 13 51 17 25 17 -40
0z"/>
<path d="M3100 220 c8 -5 26 -10 39 -10 32 0 24 6 -19 14 -25 4 -31 3 -20 -4z"/>
<path d="M6385 188 c-77 -22 -151 -42 -163 -45 -23 -5 -24 -9 -17 -62 4 -31 9
-58 11 -60 2 -2 18 3 36 12 18 8 67 25 108 38 41 12 94 30 116 40 38 16 42 21
48 64 4 26 6 48 4 50 -2 2 -66 -15 -143 -37z"/>
<path d="M3525 209 c22 -4 63 -8 90 -7 l50 1 -50 7 c-27 5 -68 8 -90 8 l-40 0
40 -9z"/>
<path d="M3228 193 c7 -3 16 -2 19 1 4 3 -2 6 -13 5 -11 0 -14 -3 -6 -6z"/>
<path d="M3293 183 c15 -2 37 -2 50 0 12 2 0 4 -28 4 -27 0 -38 -2 -22 -4z"/>
<path d="M6489 9 c-10 -6 -7 -9 14 -9 29 0 35 5 14 13 -8 3 -20 1 -28 -4z"/>
</g>
</svg>
