<svg id="SvgjsSvg1001" width="256" height="256" xmlns="http://www.w3.org/2000/svg" version="1.1" xmlns:xlink="http://www.w3.org/1999/xlink" xmlns:svgjs="http://svgjs.com/svgjs"><defs id="SvgjsDefs1002"></defs><g id="SvgjsG1008"><svg xmlns="http://www.w3.org/2000/svg" viewBox="0 0 5000 5000" width="256" height="256"><path fill="#2121a3" d="M2570.263 4871.56c-32.342 0-65.068-.717-97.269-2.132-12.486-.549-22.163-11.115-21.614-23.601.549-12.485 11.105-22.165 23.601-21.614a2180.39 2180.39 0 0 0 95.282 2.089c53.719 0 107.995-2.021 161.319-6.005 12.472-.938 23.321 8.417 24.253 20.88.931 12.463-8.417 23.321-20.881 24.253a2220.303 2220.303 0 0 1-164.691 6.13zm-354.138-28.931c-1.226 0-2.467-.1-3.715-.306-86.022-14.209-171.997-33.812-255.537-58.267-11.995-3.511-18.872-16.081-15.361-28.075s16.08-18.872 28.075-15.36c81.793 23.942 165.972 43.136 250.198 57.048 12.331 2.037 20.675 13.685 18.639 26.015-1.83 11.082-11.423 18.945-22.299 18.945zm-496.927-145.452c-2.981 0-6.012-.593-8.925-1.845-79.957-34.367-158.709-74.012-234.069-117.83-10.804-6.282-14.47-20.134-8.188-30.938s20.133-14.469 30.938-8.188c73.791 42.906 150.902 81.724 229.191 115.375 11.482 4.936 16.789 18.244 11.854 29.727-3.683 8.569-12.03 13.699-20.801 13.699zM1271.62 4436.99c-4.75 0-9.538-1.489-13.62-4.572-69.469-52.458-136.518-109.695-199.281-170.121-9.003-8.668-9.275-22.993-.607-31.996 8.667-9.004 22.993-9.276 31.997-.607 61.468 59.179 127.131 115.233 195.165 166.607 9.974 7.531 11.954 21.722 4.422 31.695-4.448 5.892-11.221 8.994-18.076 8.994zm-372.917-359.051c-6.561 0-13.067-2.839-17.541-8.316-55.121-67.501-106.69-138.995-153.273-212.498-6.69-10.556-3.556-24.537 7-31.228 10.558-6.688 24.538-3.555 31.228 7.001 45.619 71.979 96.12 141.994 150.101 208.098 7.905 9.681 6.466 23.937-3.214 31.841a22.538 22.538 0 0 1-14.301 5.102zm3821.382-1540.478c-11.667 0-21.567-8.965-22.529-20.798-5.47-67.3-14.22-135.007-26.007-201.24-2.189-12.304 6.01-24.054 18.314-26.244 12.31-2.186 24.055 6.011 26.244 18.314 12.037 67.639 20.973 136.78 26.558 205.504 1.013 12.457-8.265 23.375-20.722 24.388-.623.051-1.243.076-1.858.076zm-71.796-403.274c-9.904 0-18.997-6.552-21.786-16.56a2126.09 2126.09 0 0 0-63.762-192.588c-4.492-11.663 1.321-24.759 12.984-29.25 11.659-4.494 24.758 1.322 29.25 12.984a2171.795 2171.795 0 0 1 65.125 196.705c3.354 12.039-3.685 24.519-15.724 27.874a22.685 22.685 0 0 1-6.087.835zm-147.176-382.253c-8.305 0-16.299-4.588-20.262-12.522-30.095-60.247-63.477-119.796-99.218-176.993-6.623-10.599-3.4-24.56 7.198-31.183 10.601-6.623 24.561-3.399 31.183 7.199 36.5 58.411 70.591 119.225 101.325 180.752 5.585 11.181 1.049 24.771-10.132 30.356a22.513 22.513 0 0 1-10.094 2.391zm-217.077-347.432c-6.804 0-13.529-3.055-17.984-8.874a2154.674 2154.674 0 0 0-130.85-155.123c-8.501-9.161-7.966-23.479 1.196-31.98 9.16-8.5 23.478-7.966 31.979 1.196a2199.77 2199.77 0 0 1 133.609 158.395c7.598 9.923 5.712 24.127-4.212 31.724a22.523 22.523 0 0 1-13.738 4.662zM415.504 2615.42c-.345 0-.692-.008-1.04-.023-12.485-.565-22.148-11.144-21.583-23.629 3.484-77.029 11.105-154.559 22.651-230.436 1.88-12.355 13.42-20.852 25.776-18.967 12.355 1.88 20.848 13.42 18.967 25.776-11.307 74.304-18.77 150.231-22.182 225.672-.549 12.136-10.562 21.607-22.589 21.607zm68.973-452.617c-1.911 0-3.853-.244-5.788-.754-12.084-3.188-19.296-15.569-16.108-27.653a2171.422 2171.422 0 0 1 71.029-220.569c4.463-11.674 17.543-17.52 29.218-13.058 11.674 4.463 17.52 17.544 13.057 29.218a2126.002 2126.002 0 0 0-69.542 215.954c-2.678 10.149-11.841 16.862-21.866 16.862zm163.449-427.729c-3.462 0-6.976-.797-10.271-2.479-11.131-5.683-15.548-19.313-9.865-30.445 34.969-68.493 74.052-135.92 116.164-200.409 6.834-10.465 20.857-13.407 31.32-6.575 10.464 6.833 13.407 20.855 6.574 31.32-41.237 63.149-79.508 129.175-113.75 196.244-3.999 7.834-11.94 12.344-20.172 12.344zm250.275-383.336a22.534 22.534 0 0 1-14.294-5.098c-9.683-7.901-11.127-22.156-3.225-31.839 48.633-59.598 101.013-117.275 155.684-171.432 8.878-8.795 23.208-8.728 32.002.151 8.795 8.878 8.728 23.207-.151 32.002-53.542 53.039-104.84 109.525-152.469 167.893-4.474 5.482-10.984 8.323-17.547 8.323zm325.193-322.11c-6.637 0-13.212-2.905-17.682-8.489-7.81-9.757-6.231-23.998 3.526-31.808 60.088-48.096 123.391-93.484 188.149-134.905 10.529-6.736 24.522-3.658 31.257 6.87 6.734 10.528 3.658 24.522-6.87 31.257-63.417 40.563-125.409 85.012-184.254 132.113a22.54 22.54 0 0 1-14.126 4.962zm385.47-246.508c-8.309 0-16.308-4.594-20.268-12.535-5.578-11.184-1.033-24.772 10.151-30.35 68.89-34.357 140.364-65.356 212.438-92.136 11.712-4.354 24.741 1.615 29.094 13.331 4.353 11.715-1.616 24.741-13.331 29.094-70.568 26.22-140.55 56.571-208.002 90.212a22.543 22.543 0 0 1-10.082 2.384z" class="color2121a3 svgShape"></path><circle cx="2570.262" cy="2691.918" r="1583.712" fill="#bdeeff" class="colorbdeeff svgShape"></circle><path fill="#ffec6e" d="M4077.274 2975.507h28.536c27.058 0 48.94 21.883 48.94 48.94v498.125a322.64 322.64 0 0 1-54.411 179.349l-78.807 117.693c-35.485 53.08-54.411 115.623-54.411 179.349v606.06c0 26.91-21.882 48.94-48.94 48.94h-1036.91c-27.058 0-48.94-22.03-48.94-48.94V2893.595" class="colorffec6e svgShape"></path><path fill="#2121a3" d="M3918.182 4676.593H2881.271c-39.463 0-71.568-32.105-71.568-71.569V2893.596c0-12.498 10.131-22.629 22.629-22.629s22.629 10.131 22.629 22.629v1711.428c0 14.508 11.803 26.312 26.311 26.312h1036.911c14.508 0 26.312-11.804 26.312-26.312v-606.061c0-68.579 20.134-134.945 58.227-191.925l78.817-117.707c33.089-49.496 50.584-107.164 50.584-166.758v-498.126c0-14.508-11.803-26.311-26.311-26.311h-28.536c-12.498 0-22.629-10.131-22.629-22.629s10.131-22.629 22.629-22.629h28.536c39.463 0 71.568 32.105 71.568 71.568v498.126c0 68.579-20.135 134.945-58.227 191.925l-78.816 117.707c-33.09 49.496-50.585 107.164-50.585 166.758v606.061c-.001 39.464-32.106 71.57-71.57 71.57z" class="color2121a3 svgShape"></path><path fill="#ffffff" d="M4077.274 2795.864v179.643H2925.923c-49.088 0-91.967-37.852-93.593-86.937-1.626-50.865 39.182-92.706 89.6-92.706h1155.344z" class="colorfff svgShape"></path><path fill="#2121a3" d="M4077.274 2998.136H2925.923c-29.646 0-58.01-11.006-79.865-30.99-22.454-20.532-35.361-48.172-36.344-77.827-.983-30.751 10.247-59.826 31.622-81.895 21.353-22.047 49.975-34.188 80.595-34.188h1155.344c12.498 0 22.629 10.131 22.629 22.629v179.643c-.001 12.497-10.132 22.628-22.63 22.628zm-1155.343-179.643c-18.257 0-35.333 7.251-48.085 20.417-12.773 13.188-19.484 30.567-18.896 48.936 1.187 35.847 33.026 65.032 70.974 65.032h1128.723v-134.385H2921.931zM4557.115 4429.677h-589.996c-12.498 0-22.629-10.131-22.629-22.629s10.131-22.629 22.629-22.629h589.996c12.498 0 22.629 10.131 22.629 22.629s-10.131 22.629-22.629 22.629zm-261.331-382.115h-328.665c-12.498 0-22.629-10.131-22.629-22.629s10.131-22.629 22.629-22.629h328.665c14.505 0 26.306-11.801 26.306-26.306v-202.19c0-39.46 32.104-71.563 71.563-71.563h163.462c12.498 0 22.629 10.131 22.629 22.629s-10.131 22.629-22.629 22.629h-163.462c-14.505 0-26.306 11.801-26.306 26.306v202.19c.001 39.461-32.102 71.563-71.563 71.563zm.042-664.193h-141.055c-12.498 0-22.629-10.131-22.629-22.629s10.131-22.629 22.629-22.629h141.055c14.504 0 26.305-11.801 26.305-26.306v-202.223c0-39.461 32.104-71.563 71.564-71.563h163.441c12.498 0 22.629 10.131 22.629 22.629s-10.131 22.629-22.629 22.629h-163.441c-14.505 0-26.307 11.801-26.307 26.306v202.223c.001 39.461-32.102 71.563-71.562 71.563z" class="color2121a3 svgShape"></path><path fill="#7dc0ff" d="M4913.713 3307.499h-332.13c-13.513 0-24.467-10.954-24.467-24.467v-444.766c0-13.513 10.955-24.467 24.467-24.467h332.13c13.513 0 24.468 10.954 24.468 24.467v444.766c0 13.512-10.954 24.467-24.468 24.467z" class="color7dc0ff svgShape"></path><path fill="#2121a3" d="M4913.714 3330.128h-332.131c-25.97 0-47.097-21.127-47.097-47.097v-444.766c0-25.969 21.127-47.096 47.097-47.096h332.131c25.969 0 47.096 21.127 47.096 47.096v444.766c0 25.97-21.127 47.097-47.096 47.097zm-332.131-493.7a1.84 1.84 0 0 0-1.839 1.838v444.766c0 1.014.825 1.839 1.839 1.839h332.131a1.84 1.84 0 0 0 1.838-1.839v-444.766a1.84 1.84 0 0 0-1.838-1.838h-332.131z" class="color2121a3 svgShape"></path><path fill="#2121a3" d="M4834.855 3083.277h-174.414c-12.498 0-22.629-10.131-22.629-22.629s10.131-22.629 22.629-22.629h174.414c12.498 0 22.629 10.131 22.629 22.629s-10.13 22.629-22.629 22.629z" class="color2121a3 svgShape"></path><path fill="#ff9794" d="M4913.713 3971.724h-332.13c-13.513 0-24.467-10.955-24.467-24.468v-444.765c0-13.513 10.955-24.468 24.467-24.468h332.13c13.513 0 24.468 10.955 24.468 24.468v444.765c0 13.514-10.954 24.468-24.468 24.468z" class="colorff9794 svgShape"></path><path fill="#2121a3" d="M4913.714 3994.353h-332.131c-25.97 0-47.097-21.127-47.097-47.096v-444.766c0-25.969 21.127-47.096 47.097-47.096h332.131c25.969 0 47.096 21.127 47.096 47.096v444.766c0 25.969-21.127 47.096-47.096 47.096zm-332.131-493.7a1.84 1.84 0 0 0-1.839 1.838v444.766a1.84 1.84 0 0 0 1.839 1.838h332.131a1.84 1.84 0 0 0 1.838-1.838v-444.766a1.84 1.84 0 0 0-1.838-1.838h-332.131z" class="color2121a3 svgShape"></path><path fill="#2121a3" d="M4834.855 3747.503h-174.414c-12.498 0-22.629-10.131-22.629-22.629s10.131-22.629 22.629-22.629h174.414c12.498 0 22.629 10.131 22.629 22.629s-10.13 22.629-22.629 22.629z" class="color2121a3 svgShape"></path><path fill="#7dc0ff" d="M4913.713 4635.95h-332.13c-13.513 0-24.467-10.955-24.467-24.467v-444.766c0-13.513 10.955-24.467 24.467-24.467h332.13c13.513 0 24.468 10.955 24.468 24.467v444.766c0 13.512-10.954 24.467-24.468 24.467z" class="color7dc0ff svgShape"></path><path fill="#2121a3" d="M4913.714 4658.579h-332.131c-25.97 0-47.097-21.127-47.097-47.097v-444.766c0-25.969 21.127-47.096 47.097-47.096h332.131c25.969 0 47.096 21.127 47.096 47.096v444.766c0 25.97-21.127 47.097-47.096 47.097zm-332.131-493.7a1.84 1.84 0 0 0-1.839 1.838v444.766c0 1.014.825 1.839 1.839 1.839h332.131a1.84 1.84 0 0 0 1.838-1.839v-444.766a1.84 1.84 0 0 0-1.838-1.838h-332.131z" class="color2121a3 svgShape"></path><path fill="#2121a3" d="M4834.855 4411.729h-174.414c-12.498 0-22.629-10.131-22.629-22.629s10.131-22.629 22.629-22.629h174.414c12.498 0 22.629 10.131 22.629 22.629s-10.13 22.629-22.629 22.629zM3116.646 3390.697c-12.498 0-22.629-10.131-22.629-22.629v-119.874l-24.563 24.562c-8.836 8.838-23.166 8.838-32.002 0-8.838-8.837-8.838-23.165 0-32.002l63.193-63.193a22.629 22.629 0 0 1 38.63 16.001v174.506c0 12.498-10.13 22.629-22.629 22.629zm524.592 0c-12.498 0-22.629-10.131-22.629-22.629v-119.873l-24.562 24.562c-8.836 8.838-23.164 8.838-32.002 0-8.838-8.837-8.838-23.165 0-32.002l63.192-63.193a22.63 22.63 0 0 1 38.63 16.001v174.506c0 12.497-10.131 22.628-22.629 22.628zm-293.892 3.287c-41.394 0-75.069-33.676-75.069-75.069v-77.162c0-41.394 33.676-75.069 75.069-75.069s75.069 33.676 75.069 75.069v77.162c0 41.394-33.676 75.069-75.069 75.069zm0-182.043c-16.438 0-29.812 13.374-29.812 29.812v77.162c0 16.438 13.374 29.812 29.812 29.812s29.812-13.374 29.812-29.812v-77.162c-.001-16.438-13.375-29.812-29.812-29.812zm524.592 182.043c-41.394 0-75.069-33.676-75.069-75.069v-77.162c0-41.394 33.676-75.069 75.069-75.069s75.069 33.676 75.069 75.069v77.162c.001 41.394-33.675 75.069-75.069 75.069zm0-182.043c-16.438 0-29.812 13.374-29.812 29.812v77.162c0 16.438 13.374 29.812 29.812 29.812s29.812-13.374 29.812-29.812v-77.162c0-16.438-13.374-29.812-29.812-29.812zm-755.292 464.124c-12.498 0-22.629-10.131-22.629-22.629v-119.873l-24.563 24.562c-8.836 8.838-23.166 8.838-32.002 0-8.838-8.837-8.838-23.165 0-32.002l63.193-63.193a22.63 22.63 0 0 1 38.63 16.001v174.505c0 12.499-10.13 22.629-22.629 22.629zm786.889 0c-12.498 0-22.629-10.131-22.629-22.629v-119.873l-24.563 24.562c-8.836 8.838-23.166 8.838-32.002 0-8.838-8.837-8.838-23.165 0-32.002l63.193-63.193a22.63 22.63 0 0 1 38.63 16.001v174.505c0 12.499-10.131 22.629-22.629 22.629zm-556.189 3.288c-41.394 0-75.069-33.676-75.069-75.068v-77.162c0-41.394 33.676-75.069 75.069-75.069s75.069 33.676 75.069 75.069v77.162c0 41.392-33.676 75.068-75.069 75.068zm0-182.042c-16.438 0-29.812 13.374-29.812 29.812v77.162c0 16.438 13.374 29.811 29.812 29.811s29.812-13.373 29.812-29.811v-77.162c-.001-16.438-13.375-29.812-29.812-29.812zm262.297 182.042c-41.394 0-75.069-33.676-75.069-75.068v-77.162c0-41.394 33.676-75.069 75.068-75.069 41.394 0 75.069 33.676 75.069 75.069v77.162c0 41.392-33.676 75.068-75.068 75.068zm0-182.042c-16.438 0-29.812 13.374-29.812 29.812v77.162c0 16.438 13.373 29.811 29.811 29.811h.001c16.438 0 29.811-13.373 29.811-29.811v-77.162c-.001-16.438-13.374-29.812-29.811-29.812zM2232.639 3619.245c-12.498 0-22.629-10.131-22.629-22.629l.001-402.68c0-132.701-111.698-240.661-248.995-240.661l-415.424-.001c-66.642 0-129.259 25.121-176.317 70.735-46.867 45.429-72.678 105.776-72.678 169.926v402.679c0 12.498-10.131 22.629-22.629 22.629s-22.629-10.131-22.629-22.629v-402.679c0-76.506 30.697-148.395 86.437-202.423 55.545-53.841 129.356-83.496 207.815-83.496h.002l415.424.001c78.465 0 152.27 29.652 207.817 83.496 55.739 54.029 86.436 125.917 86.436 202.423l-.001 402.68c0 12.498-10.132 22.629-22.63 22.629z" class="color2121a3 svgShape"></path><path fill="#ffffff" d="m2033.508 3515.737-.001 260.651c0 60.272 48.86 109.132 109.132 109.132h275.809c60.272 0 109.132-48.86 109.132-109.131v-260.651c0-60.272-48.86-109.132-109.132-109.132h-275.809c-60.271-.001-109.131 48.859-109.131 109.131z" class="colorfff svgShape"></path><path fill="#2121a3" d="m2418.449 3908.149-275.81-.001c-72.653 0-131.761-59.107-131.761-131.761v-260.651c0-72.653 59.108-131.761 131.762-131.761l275.809.001c72.653 0 131.761 59.107 131.761 131.762l-.001 260.65c0 72.654-59.107 131.761-131.76 131.761zm-275.809-478.916c-47.698 0-86.503 38.806-86.503 86.503v260.651c0 47.697 38.805 86.503 86.502 86.503l275.81.001c47.697 0 86.502-38.806 86.502-86.503l.001-260.65c0-47.698-38.805-86.504-86.503-86.504l-275.809-.001zm-109.132 86.503h.01-.01z" class="color2121a3 svgShape"></path><path fill="#7dc0ff" d="m1045.362 3509.822-.001 260.651c0 60.272 48.86 109.132 109.132 109.132l275.809.001c60.272 0 109.132-48.86 109.132-109.131v-260.651c0-60.272-48.86-109.132-109.132-109.132h-275.809c-60.271-.002-109.131 48.858-109.131 109.13z" class="color7dc0ff svgShape"></path><path fill="#2121a3" d="M1430.302 3902.234h-275.809c-72.653 0-131.761-59.107-131.761-131.762v-260.65c0-72.653 59.108-131.761 131.762-131.761l275.809.001c72.653 0 131.761 59.107 131.761 131.761v260.651c-.001 72.653-59.108 131.76-131.762 131.76zm-275.808-478.915c-47.698 0-86.503 38.806-86.503 86.503v260.65c0 47.698 38.805 86.504 86.502 86.504h275.809c47.698 0 86.502-38.805 86.502-86.502v-260.651c0-47.697-38.805-86.503-86.502-86.503l-275.808-.001zm-109.132 86.503h.01-.01zm-754.938 109.419c-12.498 0-22.629-10.131-22.629-22.629l.001-402.679c0-76.506 30.697-148.395 86.436-202.423 55.545-53.841 129.356-83.496 207.816-83.496h.001c12.498 0 22.629 10.131 22.629 22.629 0 12.497-10.133 22.629-22.629 22.629-66.642 0-129.259 25.121-176.317 70.735-46.867 45.429-72.678 105.776-72.678 169.926l-.001 402.679c0 12.498-10.132 22.629-22.629 22.629z" class="color2121a3 svgShape"></path><path fill="#ff9794" d="m61.82 3400.713-.001 260.651c0 60.272 48.86 109.132 109.132 109.132H446.76c60.272 0 109.132-48.86 109.132-109.132v-260.651c0-60.272-48.86-109.132-109.132-109.132H170.951c-60.271 0-109.131 48.86-109.131 109.132z" class="colorff9794 svgShape"></path><path fill="#2121a3" d="m446.76 3793.126-275.809-.001c-72.653 0-131.761-59.107-131.761-131.761l.001-260.651c0-72.653 59.108-131.761 131.761-131.761l275.809.001c72.653 0 131.761 59.107 131.761 131.761v260.651c-.001 72.654-59.108 131.761-131.762 131.761zM170.952 3314.21c-47.698 0-86.502 38.806-86.502 86.503l-.001 260.651c0 47.697 38.805 86.503 86.502 86.503l275.809.001c47.698 0 86.503-38.806 86.503-86.503v-260.651c0-47.697-38.805-86.503-86.502-86.503l-275.809-.001zM61.82 3400.713h.01-.01zM1758.428 2951.414c-12.498 0-22.629-10.131-22.629-22.629l.001-427.877c0-141.786-119.323-257.137-265.991-257.137h-441.42c-146.668 0-265.992 115.351-265.992 257.136l-.001 427.877c0 12.498-10.132 22.629-22.629 22.629-12.498 0-22.629-10.131-22.629-22.629l.001-427.877c0-80.906 32.465-156.932 91.415-214.073 58.758-56.955 136.831-88.322 219.836-88.322h441.42c83.005 0 161.078 31.367 219.835 88.323 58.949 57.141 91.414 133.167 91.414 214.073l-.001 427.877c0 12.498-10.132 22.629-22.63 22.629z" class="color2121a3 svgShape"></path><path fill="#ff9794" d="M1499.309 2806.232v260.651c0 60.272 48.86 109.132 109.132 109.132h275.809c60.272 0 109.132-48.86 109.132-109.131l.001-260.651c0-60.272-48.86-109.132-109.132-109.132l-275.809-.001c-60.273.001-109.133 48.86-109.133 109.132z" class="colorff9794 svgShape"></path><path fill="#2121a3" d="M1884.249 3198.645H1608.44c-72.653 0-131.761-59.107-131.761-131.762v-260.65c0-72.653 59.108-131.761 131.762-131.761l275.809.001c72.653 0 131.761 59.107 131.761 131.761v260.65c-.001 72.653-59.109 131.761-131.762 131.761zm-275.808-478.916c-47.698 0-86.503 38.806-86.503 86.503v260.65c0 47.698 38.805 86.504 86.502 86.504h275.809c47.698 0 86.502-38.806 86.502-86.503v-260.65c0-47.697-38.805-86.503-86.502-86.503l-275.808-.001zm-109.132 86.503h.01-.01z" class="color2121a3 svgShape"></path><path fill="#7dc0ff" d="m511.163 2800.318-.001 260.651c0 60.272 48.86 109.132 109.132 109.132h275.809c60.272 0 109.132-48.86 109.133-109.132v-260.651c0-60.272-48.86-109.132-109.132-109.132h-275.81c-60.271 0-109.131 48.86-109.131 109.132z" class="color7dc0ff svgShape"></path><path fill="#2121a3" d="m896.103 3192.73-275.809-.001c-72.653 0-131.761-59.107-131.761-131.761v-260.651h22.629-22.629c0-72.652 59.108-131.76 131.761-131.76h275.81c72.653 0 131.761 59.107 131.761 131.761v260.651c-.001 72.654-59.109 131.761-131.762 131.761zm-275.809-478.915c-47.698 0-86.502 38.805-86.502 86.502v260.651c0 47.697 38.805 86.503 86.502 86.503l275.809.001c47.698 0 86.503-38.806 86.503-86.503v-260.651c0-47.697-38.805-86.503-86.502-86.503h-275.81z" class="color2121a3 svgShape"></path><path fill="#ffffff" d="m1005.237 2090.815-.001 260.651c0 60.272 48.86 109.132 109.132 109.132l275.809.001c60.272 0 109.132-48.86 109.132-109.132v-260.651c0-60.272-48.86-109.132-109.132-109.132h-275.809c-60.271 0-109.131 48.859-109.131 109.131z" class="colorfff svgShape"></path><path fill="#2121a3" d="M1390.177 2483.229h-275.809c-72.653-.001-131.761-59.108-131.761-131.761l.001-260.651c0-72.653 59.108-131.761 131.761-131.761h275.809c72.653 0 131.761 59.109 131.761 131.762v260.651c0 72.652-59.108 131.76-131.762 131.76zm-275.808-478.916c-47.698 0-86.502 38.805-86.502 86.502l-.001 260.651c0 47.697 38.805 86.502 86.502 86.502h275.809c47.698 0 86.503-38.805 86.503-86.502v-260.651c0-47.698-38.805-86.503-86.502-86.503l-275.809.001zm-109.132 86.502h.01-.01z" class="color2121a3 svgShape"></path><path fill="#7dc0ff" d="M2990.025 2498.112c817.242-286.84 918.207-712.559 918.207-712.559v-1191.4L2990.025 151.07l-918.207 443.083v1191.401c0-.001 100.965 425.718 918.207 712.558z" class="color7dc0ff svgShape"></path><path fill="#2121a3" d="M2990.024 2520.741c-2.534 0-5.068-.426-7.494-1.277-188.085-66.015-353.96-144.974-493.017-234.685-111.75-72.094-206.601-151.299-281.917-235.417-129.738-144.9-156.712-254.014-157.797-258.588a22.615 22.615 0 0 1-.611-5.222v-1191.4a22.629 22.629 0 0 1 12.795-20.38l918.206-443.083a22.634 22.634 0 0 1 19.67 0l918.208 443.083a22.63 22.63 0 0 1 12.795 20.38v1191.401c0 1.759-.205 3.511-.611 5.222-1.085 4.575-28.06 113.688-157.798 258.588-75.315 84.117-170.166 163.323-281.917 235.417-139.058 89.71-304.933 168.67-493.018 234.685a22.653 22.653 0 0 1-7.494 1.276zm-895.577-738.163c2.044 7.181 9.557 31.185 27.567 66.654 20.003 39.393 57.411 101.379 122.029 172.976 113.863 126.16 335.578 306.627 745.981 451.91 410.403-145.283 632.119-325.75 745.982-451.91 64.618-71.597 102.026-133.583 122.029-172.977 17.984-35.419 25.501-59.405 27.567-66.66V608.359l-895.579-432.164-895.577 432.164v1174.219z" class="color2121a3 svgShape"></path><circle cx="2990.025" cy="1304.838" r="536.177" fill="#ffffff" class="colorfff svgShape"></circle><path fill="#ffffff" d="M2990.025 2252.829c646.427-226.886 726.289-563.624 726.289-563.624V746.824l-726.289-350.472-726.289 350.472v942.381c0 .001 79.862 336.738 726.289 563.624z" class="colorfff svgShape"></path><path fill="#2121a3" d="M2990.024 2275.459c-2.534 0-5.068-.426-7.494-1.277-149.122-52.34-280.663-114.96-390.967-186.121-88.748-57.254-164.097-120.181-223.952-187.031-103.413-115.499-125.024-202.937-125.894-206.602a22.621 22.621 0 0 1-.611-5.222V746.824a22.629 22.629 0 0 1 12.795-20.38l726.288-350.472a22.634 22.634 0 0 1 19.67 0l726.29 350.472a22.63 22.63 0 0 1 12.794 20.38v942.381c0 1.758-.205 3.511-.61 5.222-.869 3.666-22.48 91.104-125.895 206.602-59.855 66.851-135.204 129.777-223.952 187.031-110.304 71.161-241.845 133.781-390.968 186.121a22.604 22.604 0 0 1-7.494 1.278zm-703.659-589.286c4.021 13.687 29.305 89.975 117.688 187.695 89.567 99.028 263.809 240.657 585.971 354.965 322.163-114.308 496.405-255.937 585.972-354.965 88.271-97.595 113.604-173.814 117.689-187.706V761.031l-703.661-339.553-703.659 339.553v925.142z" class="color2121a3 svgShape"></path><g fill="#2121a3" class="color2121a3 svgShape"><path d="M3233.276 1401.365h-288.495c-12.498 0-22.629-10.131-22.629-22.629v-361.303c0-12.498 10.131-22.629 22.629-22.629s22.629 10.131 22.629 22.629v338.673h265.866c12.498 0 22.629 10.132 22.629 22.629 0 12.499-10.131 22.63-22.629 22.63zm-437.267 426.103c-7.988 0-15.73-4.237-19.851-11.731-6.021-10.952-2.023-24.711 8.928-30.732l169.418-93.143c10.953-6.021 24.711-2.023 30.732 8.928 6.021 10.952 2.023 24.711-8.928 30.732l-169.418 93.143a22.525 22.525 0 0 1-10.881 2.803z" fill="#000000" class="color000 svgShape"></path><path d="M2889.151 1996.887c-7.988 0-15.73-4.237-19.851-11.731l-93.143-169.419c-6.021-10.952-2.023-24.711 8.928-30.732 10.953-6.021 24.712-2.023 30.732 8.928l93.143 169.419c6.021 10.952 2.023 24.711-8.928 30.732a22.522 22.522 0 0 1-10.881 2.803z" fill="#000000" class="color000 svgShape"></path><path d="M2990.024 1863.643c-69.719 0-137.742-12.686-202.182-37.704-11.65-4.523-17.428-17.635-12.904-29.285 4.522-11.65 17.631-17.428 29.285-12.905 59.195 22.983 121.707 34.636 185.801 34.636 283.171 0 513.548-230.376 513.548-513.547S3273.195 791.29 2990.024 791.29c-283.17 0-513.546 230.376-513.546 513.547 0 113.894 36.503 221.761 105.562 311.942 7.599 9.922 5.714 24.126-4.208 31.725-9.923 7.599-24.126 5.715-31.725-4.208-36.533-47.706-64.952-100.578-84.467-157.147-20.187-58.516-30.422-119.854-30.422-182.312 0-75.428 14.778-148.612 43.923-217.52 28.146-66.544 68.436-126.303 119.747-177.616 51.312-51.312 111.071-91.601 177.616-119.748 68.906-29.145 142.091-43.923 217.519-43.923 75.429 0 148.612 14.778 217.52 43.923 66.545 28.146 126.304 68.435 177.616 119.748s91.601 111.071 119.747 177.616c29.146 68.907 43.923 142.091 43.923 217.52s-14.777 148.612-43.923 217.519c-28.146 66.545-68.435 126.304-119.747 177.616-51.312 51.312-111.071 91.602-177.616 119.748-68.906 29.145-142.09 43.923-217.519 43.923z" fill="#000000" class="color000 svgShape"></path></g></svg></g></svg>